<mxfile host="app.diagrams.net" modified="2022-01-14T16:11:01.153Z" agent="5.0 (Windows NT 10.0; Win64; x64) AppleWebKit/537.36 (KHTML, like Gecko) Chrome/80.0.3987.163 Safari/537.36" etag="vG2g3sYm2Pex2dAR8_Kk" version="16.2.7" type="github">
  <diagram id="xXIiwV4dRq0vxeCP2KqJ" name="第 1 页">
    <mxGraphModel dx="1422" dy="2008" grid="1" gridSize="10" guides="1" tooltips="1" connect="1" arrows="1" fold="1" page="1" pageScale="1" pageWidth="827" pageHeight="1169" math="0" shadow="0">
      <root>
        <mxCell id="0" />
        <mxCell id="1" parent="0" />
        <mxCell id="22falqz4Or-8pj2Nucx1-3" style="edgeStyle=orthogonalEdgeStyle;rounded=0;orthogonalLoop=1;jettySize=auto;html=1;exitX=1;exitY=0.5;exitDx=0;exitDy=0;" edge="1" parent="1" source="22falqz4Or-8pj2Nucx1-1" target="22falqz4Or-8pj2Nucx1-2">
          <mxGeometry relative="1" as="geometry" />
        </mxCell>
        <mxCell id="22falqz4Or-8pj2Nucx1-5" style="edgeStyle=orthogonalEdgeStyle;rounded=0;orthogonalLoop=1;jettySize=auto;html=1;exitX=1;exitY=0.5;exitDx=0;exitDy=0;entryX=0;entryY=0.5;entryDx=0;entryDy=0;" edge="1" parent="1" source="22falqz4Or-8pj2Nucx1-1" target="22falqz4Or-8pj2Nucx1-4">
          <mxGeometry relative="1" as="geometry" />
        </mxCell>
        <mxCell id="22falqz4Or-8pj2Nucx1-1" value="ServiceBean.java&lt;br&gt;export()" style="shape=parallelogram;perimeter=parallelogramPerimeter;whiteSpace=wrap;html=1;fixedSize=1;" vertex="1" parent="1">
          <mxGeometry x="150" y="310" width="170" height="60" as="geometry" />
        </mxCell>
        <mxCell id="22falqz4Or-8pj2Nucx1-7" style="edgeStyle=orthogonalEdgeStyle;rounded=0;orthogonalLoop=1;jettySize=auto;html=1;exitX=1;exitY=0.5;exitDx=0;exitDy=0;entryX=0;entryY=0.5;entryDx=0;entryDy=0;" edge="1" parent="1" source="22falqz4Or-8pj2Nucx1-2" target="22falqz4Or-8pj2Nucx1-6">
          <mxGeometry relative="1" as="geometry" />
        </mxCell>
        <mxCell id="22falqz4Or-8pj2Nucx1-2" value="super.export();" style="rounded=1;whiteSpace=wrap;html=1;" vertex="1" parent="1">
          <mxGeometry x="430" y="280" width="133" height="40" as="geometry" />
        </mxCell>
        <mxCell id="22falqz4Or-8pj2Nucx1-4" value="服务导出成功后发布ServiceBeanExportedEvent事件&lt;br&gt;publishExportEvent();" style="rounded=1;whiteSpace=wrap;html=1;" vertex="1" parent="1">
          <mxGeometry x="430" y="630" width="330" height="50" as="geometry" />
        </mxCell>
        <mxCell id="22falqz4Or-8pj2Nucx1-9" style="edgeStyle=orthogonalEdgeStyle;rounded=0;orthogonalLoop=1;jettySize=auto;html=1;exitX=1;exitY=0.5;exitDx=0;exitDy=0;entryX=0;entryY=0.5;entryDx=0;entryDy=0;" edge="1" parent="1" source="22falqz4Or-8pj2Nucx1-6" target="22falqz4Or-8pj2Nucx1-8">
          <mxGeometry relative="1" as="geometry" />
        </mxCell>
        <mxCell id="22falqz4Or-8pj2Nucx1-11" style="edgeStyle=orthogonalEdgeStyle;rounded=0;orthogonalLoop=1;jettySize=auto;html=1;exitX=1;exitY=0.5;exitDx=0;exitDy=0;" edge="1" parent="1" source="22falqz4Or-8pj2Nucx1-6" target="22falqz4Or-8pj2Nucx1-10">
          <mxGeometry relative="1" as="geometry" />
        </mxCell>
        <mxCell id="22falqz4Or-8pj2Nucx1-87" style="edgeStyle=orthogonalEdgeStyle;rounded=0;orthogonalLoop=1;jettySize=auto;html=1;exitX=1;exitY=0.5;exitDx=0;exitDy=0;entryX=0;entryY=0.5;entryDx=0;entryDy=0;fontColor=#FF6666;" edge="1" parent="1" source="22falqz4Or-8pj2Nucx1-6" target="22falqz4Or-8pj2Nucx1-86">
          <mxGeometry relative="1" as="geometry" />
        </mxCell>
        <mxCell id="22falqz4Or-8pj2Nucx1-89" style="edgeStyle=orthogonalEdgeStyle;rounded=0;orthogonalLoop=1;jettySize=auto;html=1;exitX=1;exitY=0.5;exitDx=0;exitDy=0;entryX=0;entryY=0.5;entryDx=0;entryDy=0;fontColor=#FF6666;" edge="1" parent="1" source="22falqz4Or-8pj2Nucx1-6" target="22falqz4Or-8pj2Nucx1-88">
          <mxGeometry relative="1" as="geometry" />
        </mxCell>
        <mxCell id="22falqz4Or-8pj2Nucx1-91" style="edgeStyle=orthogonalEdgeStyle;rounded=0;orthogonalLoop=1;jettySize=auto;html=1;exitX=1;exitY=0.5;exitDx=0;exitDy=0;fontColor=#FF6666;" edge="1" parent="1" source="22falqz4Or-8pj2Nucx1-6" target="22falqz4Or-8pj2Nucx1-90">
          <mxGeometry relative="1" as="geometry" />
        </mxCell>
        <mxCell id="22falqz4Or-8pj2Nucx1-6" value="checkAndUpdateSubConfigs();" style="rounded=1;whiteSpace=wrap;html=1;" vertex="1" parent="1">
          <mxGeometry x="780" y="190" width="200" height="40" as="geometry" />
        </mxCell>
        <mxCell id="22falqz4Or-8pj2Nucx1-8" value="补全ServiceConfig中的属性completeCompoundConfigs();" style="rounded=1;whiteSpace=wrap;html=1;" vertex="1" parent="1">
          <mxGeometry x="1180" y="80" width="250" height="50" as="geometry" />
        </mxCell>
        <mxCell id="22falqz4Or-8pj2Nucx1-13" style="edgeStyle=orthogonalEdgeStyle;rounded=0;orthogonalLoop=1;jettySize=auto;html=1;exitX=1;exitY=0.5;exitDx=0;exitDy=0;" edge="1" parent="1" source="22falqz4Or-8pj2Nucx1-10" target="22falqz4Or-8pj2Nucx1-12">
          <mxGeometry relative="1" as="geometry" />
        </mxCell>
        <mxCell id="22falqz4Or-8pj2Nucx1-43" style="edgeStyle=orthogonalEdgeStyle;rounded=0;orthogonalLoop=1;jettySize=auto;html=1;exitX=1;exitY=0.5;exitDx=0;exitDy=0;entryX=0;entryY=0.5;entryDx=0;entryDy=0;fontColor=#FF6666;" edge="1" parent="1" source="22falqz4Or-8pj2Nucx1-10" target="22falqz4Or-8pj2Nucx1-42">
          <mxGeometry relative="1" as="geometry" />
        </mxCell>
        <mxCell id="22falqz4Or-8pj2Nucx1-73" style="edgeStyle=orthogonalEdgeStyle;rounded=0;orthogonalLoop=1;jettySize=auto;html=1;exitX=1;exitY=0.5;exitDx=0;exitDy=0;entryX=0;entryY=0.5;entryDx=0;entryDy=0;fontColor=#FF6666;" edge="1" parent="1" source="22falqz4Or-8pj2Nucx1-10" target="22falqz4Or-8pj2Nucx1-72">
          <mxGeometry relative="1" as="geometry" />
        </mxCell>
        <mxCell id="22falqz4Or-8pj2Nucx1-10" value="startConfigCenter();" style="rounded=1;whiteSpace=wrap;html=1;" vertex="1" parent="1">
          <mxGeometry x="1180" y="160" width="250" height="50" as="geometry" />
        </mxCell>
        <mxCell id="22falqz4Or-8pj2Nucx1-15" style="edgeStyle=orthogonalEdgeStyle;rounded=0;orthogonalLoop=1;jettySize=auto;html=1;exitX=1;exitY=0.5;exitDx=0;exitDy=0;entryX=0;entryY=0.5;entryDx=0;entryDy=0;" edge="1" parent="1" source="22falqz4Or-8pj2Nucx1-12" target="22falqz4Or-8pj2Nucx1-14">
          <mxGeometry relative="1" as="geometry" />
        </mxCell>
        <mxCell id="22falqz4Or-8pj2Nucx1-18" style="edgeStyle=orthogonalEdgeStyle;rounded=0;orthogonalLoop=1;jettySize=auto;html=1;exitX=1;exitY=0.5;exitDx=0;exitDy=0;" edge="1" parent="1" source="22falqz4Or-8pj2Nucx1-12" target="22falqz4Or-8pj2Nucx1-17">
          <mxGeometry relative="1" as="geometry" />
        </mxCell>
        <mxCell id="22falqz4Or-8pj2Nucx1-20" style="edgeStyle=orthogonalEdgeStyle;rounded=0;orthogonalLoop=1;jettySize=auto;html=1;exitX=1;exitY=0.5;exitDx=0;exitDy=0;entryX=0;entryY=0.5;entryDx=0;entryDy=0;" edge="1" parent="1" source="22falqz4Or-8pj2Nucx1-12" target="22falqz4Or-8pj2Nucx1-19">
          <mxGeometry relative="1" as="geometry" />
        </mxCell>
        <mxCell id="22falqz4Or-8pj2Nucx1-25" style="edgeStyle=orthogonalEdgeStyle;rounded=0;orthogonalLoop=1;jettySize=auto;html=1;exitX=1;exitY=0.5;exitDx=0;exitDy=0;entryX=0;entryY=0.5;entryDx=0;entryDy=0;" edge="1" parent="1" source="22falqz4Or-8pj2Nucx1-12" target="22falqz4Or-8pj2Nucx1-24">
          <mxGeometry relative="1" as="geometry" />
        </mxCell>
        <mxCell id="22falqz4Or-8pj2Nucx1-27" style="edgeStyle=orthogonalEdgeStyle;rounded=0;orthogonalLoop=1;jettySize=auto;html=1;exitX=1;exitY=0.5;exitDx=0;exitDy=0;entryX=0;entryY=0.5;entryDx=0;entryDy=0;" edge="1" parent="1" source="22falqz4Or-8pj2Nucx1-12" target="22falqz4Or-8pj2Nucx1-26">
          <mxGeometry relative="1" as="geometry" />
        </mxCell>
        <mxCell id="22falqz4Or-8pj2Nucx1-30" style="edgeStyle=orthogonalEdgeStyle;rounded=0;orthogonalLoop=1;jettySize=auto;html=1;exitX=1;exitY=0.5;exitDx=0;exitDy=0;entryX=0;entryY=0.5;entryDx=0;entryDy=0;" edge="1" parent="1" source="22falqz4Or-8pj2Nucx1-12" target="22falqz4Or-8pj2Nucx1-31">
          <mxGeometry relative="1" as="geometry">
            <mxPoint x="2350" y="475" as="targetPoint" />
          </mxGeometry>
        </mxCell>
        <mxCell id="22falqz4Or-8pj2Nucx1-12" value="从其他位置获取配置中心的相关属性信息，比如配置中心地址this.configCenter.refresh();" style="rounded=1;whiteSpace=wrap;html=1;" vertex="1" parent="1">
          <mxGeometry x="1780" y="140" width="360" height="70" as="geometry" />
        </mxCell>
        <mxCell id="22falqz4Or-8pj2Nucx1-41" style="edgeStyle=orthogonalEdgeStyle;rounded=0;orthogonalLoop=1;jettySize=auto;html=1;exitX=1;exitY=0.5;exitDx=0;exitDy=0;" edge="1" parent="1" source="22falqz4Or-8pj2Nucx1-14" target="22falqz4Or-8pj2Nucx1-40">
          <mxGeometry relative="1" as="geometry" />
        </mxCell>
        <mxCell id="22falqz4Or-8pj2Nucx1-14" value="CompositeConfiguration compositeConfiguration = Environment.getInstance().getConfiguration(getPrefix(), getId());" style="rounded=1;whiteSpace=wrap;html=1;" vertex="1" parent="1">
          <mxGeometry x="2300" y="50" width="370" height="50" as="geometry" />
        </mxCell>
        <mxCell id="22falqz4Or-8pj2Nucx1-16" value="" style="shape=image;verticalLabelPosition=bottom;labelBackgroundColor=default;verticalAlign=top;aspect=fixed;imageAspect=0;image=data:image/png,iVBORw0KGgoAAAANSUhEUgAAAcYAAADPCAYAAABvGnFVAAAgAElEQVR4Ae19XY8kx3Wl/g4hQE9+aniaQ1kyh8P2aHaGTcozxE63aXg+Slqt0WUsIAFs9gDSiiB6IMuU9SBAMjQmIRsQl6IMGRi+af4I/0ksbkSejBORkVlZVVnVmVXnoZCZ8XHjxo1b98S9GRnxtb989TWnn2QgHZAOSAekA9KBoANfkyD0Z5AOSAekA9IB6UDUAQGjPGZFDKQD0gHpgHSAdEDASMLQjCnOmCQLyUI6IB3YVx0QMAoYNVOUDkgHpAPSAdKBrQDjfz591fX57eLs5ODokfvq8sI9P7o+KsU7OLzlnl9cOvfsmfvze+Pgcayy2hW9PLh56s7O5+7BzbHp4pF7MD93H3zwgXv87jh4HKusdkUXx94PASPNEjYxWOsa+4PD++7lZQAwAzE3vz8IwJ4+vKhprcvjUHIbCx/oz8Hh2+7J+bk7OzmqZY40M+L2O5+9Xeeh3liv6xr7TfX9xsm8luO6PA4l+03wEWiGCQD0h3ULvB8cz7xuef3KJjJM4zzLq+uX9NZPimLbT47D5MjL/nzm7h6Oa7KEvlzVtQiMN//mO+6v37hZ/MNbuuUvw3Afb9HKLENzimXhpb28108JD+7NvUfH5S3tq4e31pbV0/nlIHTWGYdl5bFOW6vUNQPFwAeDBaNiNC2tZNxWaW+bdQ4Og5fGfelqf5N9vztLJx9dfGwqb1l5LMtHGwBZ388JmPzkY37qblRA5XWwysfEBGPm86gseLK2DFShl8V61KbxAJqgse/XIjBe/uzn7le//rcGOBooWrrl77vgVun/MkAAT5FBcZU22+oIGBcvrDAD02Zc2uQ6lfRlgCA3rEP3cdeBkQEMEwwDwycVIHnQbIk8BNmH8DfTsTEIY5iGxr1HOT91D2iyEWhEr5BpGh3W86HHdqr0isAIAGRwLKX17fQQHiOAwocTnz2rvZ083V3O3VPMtnwY8sI9v2fv0EI40oAGnpjRgvcVQSsNXTIwdbVlsvDhSQt32q/iI4QH5+7i2r00JHrxyJ0eXnc5zZof8xarMm1yzuuiTSsf8i7c84fB6+S+GihCjlbn4k2TTy63qoy9HzUa4Ne/M6Wy9NyQYVIntunHIA8RXzxyJ118kEwX9a8kr7vnn7ovv/yy8fvk/J3WSR4bjNwoldoAgCBM1vAELPR1bO/QQkjLZukwlOkMH95cCOWCHs/qu9oy3ox31AMfIQw3c3euHfsQcZ1feR05zXpSYJ5zwTNhGeR10aaVCXlz9+AkhghB20Cx5uN85u68YfLJjXgo40OHJ5EX9AdhQH6OwB9kCP5DmdimH4Mq9FjzMT91r3fwYeX69s/6D48s5c/4qgDPtx/7nMjVZA+PMRuH2McQgeLnfLLR0GUCYs7jtvf5vgiMJhAGwtt3j72nyEC5jNDWBUYAAEADbZfSPegBlGB8YaCr0CTe0wG0DEhh1BNwsfIZLeYhaYsAAvzZtdQGwLYGr2phDniowbsDGHv3vXonmb+/Y48x5TFMDCKP1SIdyDDrZ1q3KpuA7C33fB4mAV4eiUxD+botor1u/3gMVr1n47IIGAEMMPi+r2zUKuNbG+jqPRJCtanRDMAIg9hGq7Ut/z6paWhLbQBsa/CqFuawkR2s75UxDnxETyeRM/EOmUYeK7kAyKmslxE9g/9EhhY+nrWFKTEZqUAmoVV411wa20L/Qh/CWDAABf5COt+zrgY5xTBn47nSIciH5cj3RpMnSgbsrDuWBz3k9vf5vhUYTSgAx88+/6IYWu0ruLWBscV78sCUgUcCLvAYa+Axox9XiDIwcT30i9P6tXXpHNE3OiXgqIEAQA0vs7oa+JbaA1+ebkEmCb+NvhsIxb63AmOJLqVxfxb1j/ktetPVythaHgyM1CboLNM/1Fn1mhuLheCQzeatXRjn6JVEMGgCEXsQqZFu0OrVlr27iu15GomxT9tgzxWeEwzo8H23tiNvbMQT8C71k9K47KL+WT5+DBIATh6rBi1qEzS4fHMsY/9yYASIcTrfg77Xv2z8PF+8MMeHTIMc8zFqyjTKO7QXAdfocnnwsM/XTmA0wRg4fvjRZeN94zaF1gYSpfRgPAMAMPAZv13PbHTRN05b1FZeBwDJQML0PD8F4x/ppCCOdFwX8dPs69UAY+h/XOjTKY9ewNg2tmn/ICdcVwmlsrEIxiQaF9DFNTdMlh6MZ2W4vMcY6+f0+JmNbk2fFsssaiuvA4BkIMnbKNGMdCJoI42vpbrdfY/AYXQSOTN4lwCJ0rg/Roef8/7F/LjQp6t8kkdtot99+8fleLJ142TmzuaVx2j0KbRp8uBntJlfg85YaPzN+nMXntTYvUUo/kfBI2SZM195G/v6vBAYhxDM2h5jFRKtPYvD++65eVVVeiO8ibBfw2tKwYbBA6CFMKv123s5i0KpaOvokXterTYFLeO3EwiyflmbT+fx/V1oP3p5lm+A6D3KpfueAkerx5jxhL6k7xgjT6mMrI1Lh3ECv6jblGlaPpVVCOn2H9u0f9bWuj8zGI2QUzaLN1CwMsFIRaPr+04GlYHP53UAJYw6G8fgQSD01hLaoxDjg2o5Pmh5r5VBh4A28pN7EaE9yw/tR2BH/1bre09grMLP0cuyeuf1+84AXpGnVEahLOqCX4SyY58g07R8AowVH6wLPBlojm3aP8/X7O06ggBP3NIBXvUqVBoj47Hrx+CWl+O8XE7QVcjG+OC+5bT28XkSwGgDA8+DF7b49MqQ82KSxuKbZUKp87hYBe8XoRgA4lJbViZZ1JK828vAzkKmBKhYGGR0GVR8/8yr5FArfcfYxQ+DfpBTChxtwOjLes+tvPjG8jks+tV8Xi/cAYhyH5CGPnD5hNaqi2/qsU37Z7TX/ZUMhhlEnpUzeMHgIB9hOuOjaTxTL4zzazCbxbaYVqQXF5Hk+WYYaz6Sd18p2LFhDgY01oPhhByH63sKHE0jHnlknvLFN8YXwMX6cTab1Qt3ahlWE4QgswB+kAuXZ1oGnistvknez0bANtrWRwZlSyv9chmDVxsL9AlpXWDGMrV2cro8tiU9L/G2T2mTAcZNDwoMOBv1Tbc5FfqlsO1UeF+HTzMmDHzr0FqmLgwgG69l6u9yWT8mC1bIjrX/OTgZwPUBy033x0BUupZOVLYCjJse2CHoCxiDYgQ5RA8XXimHNIeQ9xRowAPsmplvoh8CRuiieXjkPRZCmpuQ/z7RNG8xjzbsU//b+ipgrEIaAsY4Y0rC1vStZ5sSKT3KbghZCBijPDmUah7WticpQ4ynaMTxnIosBIwtsf6pDKD4nN6fTmOmMZMOjFsHBIwCxuIiAP1xx/3H1fhofKQDm9MBAaOAUcAoHZAOSAekA6QDAkYShmZgm5uBSbaSrXRAOjAVHRAwChg1U5QOSAekA9IB0gEBIwljKrMZ8amZt3RAOiAd2JwOTA4Yv/Wt19z87667f/2nV90n5+Fn95ZmeVIWyUA6IB2QDkgH1tGBSQHjyfF19+/vv+ra9l61PCvTJpDwsXr8eL2t3D6n876K4QP3+IH1KnLBN3n2DZp215CxWkWHVEd6s20d2Dgw3vyb77hnP/vntU/nMMD7j6ftoAiwtDJt4LgPwMi7tTAoYX/FRVtQDQ2MfmcNOjmgTcHB65TAM//4vO0DdN4KDCddQA5Mg/N4D1CMHU8uMM6WltfTTiYCEuiXrqvpwsaBEWc6rnrIsQ3st7/9WtFT/NHJX7hbh6+406NvJF6keY5WJ1eKvQBG2t9zXbAZwmPMNzPOxwTP6/IKOtu6tm2l5TeLzk+gp709/V6fOJE9Pz2CTuPI+xEANHjvkBV2gWGaVk97Xzb/+7k89SwZdenAxoHRGl8XHO39ITxCvt755tfdb350rZhndfKO7wMwmsGuDWZ2tFAuj0XPAsay8fBAhCOeqtM2zEt7Um3G3OUlB5mGkxeYjo1FALz0VAaMEYMdg2SsFzeCZh1AfV3LYym5SC4lHdgKMFrD64CjLa5hQMT90eErxXTLtzp5h3NgDM/V8Up2tFN19iLqJfmXF+75w3l9XJSVWSqf9hyN+7KGMwdxBBXaxXWVw3XZKMKzKIUnOYSXhOjoPLgcGI02wnocrmujZcY8Lx9oxvQ+IJ7X4bbDOITzCeuw4sksObWA65eOLuJ8o9HkKdBHGBogxQAVaFSA5z3B8rtZ9u7KwBgBDnrQKEdRAZQxnsA36wDydRUASAf668DWgNEG5fbdY/fZ51+4Dz+6bIBW16DZ6lOAIa5H115x+FlIFem4Wp2cJgMjQI1PjfDHK2UHE+MYKoAZQAz1u/Pjgb6ob+VxnwNxzu8qz2wgAYwAJxh9nz47dfXhqGZoEd5rAUYGAeari5aVS/nJzyAM5+MZcIPXHMQBWjD6RjMBlzwcWXnJADHUB120k+ZHLw35zBNk49sm0GMACvU41NkERkwgal68rCMQWr9sjJAf2osysmf7Wbv5cVgs51I+6ura3zhKVvsrq60B4zoeYwkYDQANGAGE+XUhMNoBwNVhwfgDALA8eJXyKa10RiGn+Xs+YLi6NyDmdtD2ENfcILKRL9G38gBNGH8GwAAqMPaV15SdYA+6JVqWxwYbhh9t4mqg18Zr7i0ZTS5bzKd3dX3ywQdf23himVifAWKczvcsH14kg3SWiYH1g1kEad9XmqhwnS5gtHIsd9TTdX8NvcZ+ubHfCjCuA4o2oK2h1A5gXBRKZRCD0gTACl5eMX9ZYMyAN23n0sHbRHp+XSWUygaRAYRpw3OBF5aAIRnikoEHTRj5LlrWZsIPARbzY/egC6BBfhHYvFdYhS0LNLkO35dolvLrcoV3tIHP0DZPRG6czNxZdXagp0krcU0GOZChDb6W5M3yQ9mc51x2zBfq6LqcYZS89lteGwfGdUHRFLRt8U2Xx7ho8Q1CoY1QagVmyAd4wcuDl7lsvvXj6Tx8QwlaoD3kn9CMYg14BcNubeWG1RvSHqHUB9U3omyIu2hZW2zYg+GPocOQD4+0GTL0vFahUvQp5z+nCd7SUGlsc1F+H54APKBlnqbxZ+l2j7Y9rzTRsOeuH8vK1/V9Tz3IkJ7KqjQGLK+uNpXXPSaSz37KZ+PAOMR3jG2fa7QBY9/PNQBuDiHPfPHN0SP31WW1OKe0+GaZ/GfPag/xyoGxAkyEDs9mM3e2ABjNQJjhRh14QAwOHiCIFuqwkYaHCTrwEHM6lg+AAfihDsK+MFpMs7i4pnqX52laKDhfnEP5VibnCc9oD/0Cf5ye3xtogW++Gs28zywno8OefIMu8ZzLgydHeT0976eh17gvN+4bB8ahBmSID/zX5aUUXmWai/K57KbuvfdAYbxNtTNmurkHlfO6KD8v3/ZcAr0+YNlGb6h0m8CUwHwo+qKznJGVvKYnr8kAoymXgeM6W8Ito6DBq4vbx8G7ROh1Uf4ybQ1ZFt5V7n0M2caYaAWvK64Azfu/KH9MfRmCFw6LD0FPNKZn1DVm64/ZpIDRBnybm4gfcKiUvkOE4i3KRzld11fULhlyKNXClfmkYFF+F23lbXbsJF/Jd4w6MDlgHKMQxZP+3NIB6YB0YHd0QMC4YKWglH13lF1jqbGUDkgH+uiAgFHA2PkJQR8lUhkZG+mAdGCXdEDAKGAUMEoHpAPSAekA6YCAkYSxSzMe9UUzeOmAdEA6sJoOCBgFjJopSgekA9IB6QDpwOSAcZufa2i2tdpsS3KT3KQD0oEp68CkgHGbH/gvM6jY4s22lvvze7aNXDxuahk6KBu+j1yPBmht4hq+C2zu4Zm3hS3PhtiFpc9uNX35yvnch+eD4w/cJy8+de9X+93uQ5/VR4HzqjowGWAcw5ZwbUI+fXjh3Py+D0UsA2oA1Hwz8WVotPG0ajrvHNMGbH0BqK3+KrwxMLbR7ctXW/uhftwPtrRZgNXlreBwyghoMg3OwwbjvF+q3fOkgWUPekPtZDMWYMxPjHnx8fcUwqMQHsZd16sF9Y0Co20gbqdrlAbZ0i2/lJentW0ibgcU3zp8xZ0efSM5l7FtE/Gc7lDPT+eXDlvFLUOzDRj70Finbhd9D0DVXqttANRVn/PWrZ/QouOl1qHbVrcNgGzfUd6k24PXvOWQ5/zQZOKZ+2L3AUDTk0WsnSez88bOPbu09+njj1+4T87f6fW/z2Wm56sFi32S/0aB8fJnP3e/+vW/NcARR1FZfh9htx07deebX3e/+dG1BBRxYHHp2Kk+ba1SZpeA0QACW6q1gUhfGa1bn9vp4zFy+bb7Ek8J7eo0DICUeXQeNFs2Zg9eXvlsyNBWOeTcBnaWDvmjDzwmSJvq1YDxX2bXe/3vp9pH8T19AN8oMAIAGRxLaYsUqfWg4sNXiqBo4Fg6qNjawWbgOGoKnl6e7ugIqpB34Z4/nLu8noEi0qzOxZv2jrG5+bgvkx1d1eb1hVBqpOFDtXQ01sW1e+4ljsOy9JYDkfOw1Zdffuns1zVjZyNcAhEvQzpjsAaGk3i8Egx7Xh9hxnhk1dvuyXkMXaJeGKc0z8KOOLkipwv9YS/M0qwvCF0a0N25dpy0B3oAKa5f9+umHQ9lvMSNytGe59O8QhzZlXmIrXxm5ZjeEMDI4/7ixcfu8eF1F0Kp4Z7zoRMIaR4cfs/9y4sXXk8W6UqJTledg8N33PufRtrgjfuv++mDyi6M4UaB0QTEQHj77rH3IBko+wjxk/NXGwBoZzHiZyFVeIq4Wp2cNsAPYIj8Uro/QqoCOOS3vUdkj5FBDfXwDhFACCDDM/Jrfvzm5dWhxnSPfLu21eUyq9yzYW417A1gjCfUB3CpPCg6KNl7ZXYW4s3gLTDwhP7Ew3dDXnp0kvEFIOvFF/HIcsjrMug1JwUc6mwCI4Ae7wkbz5X3ify8n8wX7ln+SDO+MJlAWtuVAZDLtKbPPnYvPv3A3TXw9KAYF+gAyDbl4Rmwom3mVfcCx6vWgY0Do3UQ4PjZ518UQ6uLhFACRgPAtoOKLa8IjPfmRe+qdI4iA08AuLhKNOTF51ZgLLTHbXEbLIMSuLpspWtbXaaz7H1ugHMQAb02z8ryQ50MGGfRq6pptBzga14jhza5/FLAWL3v4wUwkb8IujkwAsQ4ne/Bj5cVAT3SjffaS52fugezOBnw7bcANuqXgNHy2tJRD1d4fC+yFaglYMzTDmYf154iPMkuDxBtrnrNgXhVOqonIB1aB7YCjMa0geOHH1023jf26VBrKPXacqFUBiVut5TO4HeVwAg+AYQASDzn3ibK23XZUJevQ++4hgLG8/ncnWUgUgI/8F7K47Q+fNW0Kq8VAJnXZSDnicGNk5k7m1ceo4U+6R2j917pGW3l1xKgLgK4Uj7zlbfR9gxvDwDZAMHMOzQ6BozLeHCr6BfzK2AUoLE+jOl+a8C4TqfbFt90eYylxTfN0OZ99/zhrfq9I4dYGSxXBsbD+/5dIMALYLZsKPX5PYQfb7nnF5fO6IEWaK8jX65rRhjv+nIQQbmlPcbj69UqzNxTi89G++4MocvwfjF6byHMupTHePPUPai+2eN+8D36A+BBnnl8JgNL53ebVp77jvpt1xzkAlCmHmReN69j+Twmefn82QDw/WpxC8DRQqEMjJzO9eFtcuj08cfhvSSXW/Xe2r1L31HaQpxlgHjVdlVPALysDkwCGNs+12gDxq7PNUKYslow07ZIxha0NPJi6DSAUnxuC6XaYKTtVQt4qsUyALd68U61kOYkW8CTLPCpvpc02vWinJbFN8sqg5VnI8xAweHB1984dWdYcOJDltHYhzpZKLUGqAB49WIVH1aMi28AhF5uHJI0b/Nk1njHCJ4AXsyX0TCQQRn2+EqAZ2UBvF1y41ApaNvVeM/lhQkG6PUB1XWB0doywEEotF5U4z/wDyDH+eVysT6DJPqx6hWAXLdZvdtclZ7qCfA2pQOTAEbr/Jg/8F9mcNgTXabetsr6kGWPMOG2+NlmOyXQ6wOWm+bRwJInDZtuT/QFOPuuA5MBRhuosW4J16ZEwSOMn10glMsh27a6V5Uewn3Nb+muip99b9e8W3jY+y4L9V+AvS0dmBQwmlCmtol4Ekp99mylHXK2pQxqR4ZHOiAdkA685iYHjBo0/XGlA9IB6YB0YJM6IGDUBr6NjRA2qXCiLYMmHZAOjF0HBIwCRgGjdEA6IB2QDpAOfO3N//X/nH6SgXRAOiAdkA5IB4IOCBg1MdDESDogHZAOSAdIBwSMJAzNljRjlg5IB6QD0gEBo4BRM0XpgHRAOiAdIB3YS2D8/Bcz1+enmeN4Zo43v/8H9+Pfh63K/vVn/+V+9+K/3Y9/+NmV/plv/nAcfEhPx6OnGovdGAsBYwdIdin5ze//0f2yOtD1xQaMNOj/7hd/8MYfz9hn8pc/vVpQaJNNzueL3/5xEPB68Iv/dqA1FkDaBB+BZtyr1MYbOsAyv/nTP8X9UDP9YxqsmyZD6A9foUs8di9e/Mn94/eDjnnZ0zPzofvdAAKNYzqOkwDGd/7P5+6teco4BtLSLR/Pfa59vEUr00YL3gsMlhkpNiRt9ZZJ9zQrUIHBigbMvKdouJaiW3leoLVM3UVlYayZtqVBTovqd+X/429fDEKnq41FeRh37t+iOsvktwGQ9Z31y+vD7//LPaiAi/WvoSumm1SW+QkAGvQo9C3qlG+TJjX2vKl+M0+6L9s5yWW7cpkEMP7811+4X3/6xwY4GihauuVvU3HYoFi7mzCYZiQBKL69FuO2bL83wWuQQfCgN2U8dx0YPbhVY4wJhoHhLytA8qBJQMXjHsAwhJaZTtTNcti5C+xyOqyP3Lbut2uwJe/tyHsSwAgAZHAspfVVmrU9RpuFZ0aqy3CbUeHQFe4BfCW+2RDlXgDKA+SYDhs0bteM7P/+3hd1+Nd4gCcB+jlftcH9qb1LC+E9Az4YbiuPtrld8Jdf83YaXpCFBH8RQ4SgbbIFb74f/t1e9G6Yrg8d/iJ6SY1JDNWF/H750wDqtTx8mdim7zOFziG7/0m0rK/Mhy9D4cdaloX+WV2AFPNb1/nhZxXt2GeWrZd91VY+DrGPaeg9L8f0wA/kb8+sj3lZPW/HWEvO25PzJIDRFIKB8N0ffu49RQbKZZRmXWA0I7EMMC7DG8rmQGuGLDe2VjY3cCUDC5q+fBZKZeOb58PQ14ABHhDiJWDI+eA2A90APmxsfR0Y9Ap4INcAENHTYXk0wSOG+QAENc/Eo+eDnuuyCYD9wf34t21hyrAACF5xiY9V+hfkHECPASjwF9L5nmUbeKD++/7RczVm4DmMRdoP0AMt0zMub/klnUc9XbdnsCXr7ch6MsBoCgFw/OzzPxZDq32VZl1g9AZ9CY+xL18o12WELM8DJMDJA0oVRvP3MKSVF5QvzMiBkRZxGF38zMA3QdNoRrDi/IXAWHjXBWCKHhnTNuMdn1uBsUSX0hi8TL78zO1D9rhCzl7WNXingJLQojZBg+mzrDwffhya42btApQYMPke9L2e0Hgg3cYC42gThB//NsrRt02TA9TJryZvTC6Qx2OANF23Y6gl5+3KeVLAaMph4PjsV39ovG/cpuLkIMAGsMQHG1kYLLuyd5HX6zJCwUhGr8DoGy1vKDPABm9YnYjn2vgWDDp4aRrzDmAkgEZ9vuYys7zAC4NDNOCcZ2VZHgsBifrEZX2bBAq5LGJ+XOjD9fPySR61aXQ8rQb4lfvHfeUxfPCLP7nfVYusvPxobD1w0TPazK8lQGVZ5uXxnI8984Uyum7XWEve25P35IBxCOVY22MseF357HpdPgF2RscbYDKCudHy+b//k/sleViW9uPqkw426HzvaVchTAClpf3jb9nrZGPeDoxWzxvPzIMxgx69zwg4vm0Ck0afCFQCT7FuAkgZ/+gfxiOUjX0IPKJ/qQeY8xT7VC5f4oMnOzwZWNQ/AA/4x8TJ0u0e/fE8Erjbc9cvB8GcD9T1fSEd8/zQgi975r6hnq7d8pd8pikfAeOq3zFW73K80aJ3VEP9EXJDBANp7dmPgcza9B4EGTKkoTze3Vk6aMHYBgOfLjaxcrkRXfTs61AYz8uGjG2oH9spLr6pPtoPABEBjQ08A5JvMxmLsIAHfeP+Gj+/++2f3O9aQqOhzwEsITcuz7SM/kqLb1r6Z7RLY2jp+c8AF/zx1XSCgdX3t/oOFjRy2SHdrtALq8djgzwBY3MsWH663x35CBhXBMZN/wny0Nmi9hg4FpXd9Xz21KbW1xLoMchfVX9Mv/LJ2FXxonZ3B4DGOpZ7CYxjHQzmC95Vn1l6lxfANHfxPnhIIdRp/VtGbrsoj030yTzJ3IPcRDuiKcAbiw4IGAuhqrEMTh8+bCZvoa99ns3noeA+k4k+slUZGWrpwH7qgIBx4sCoP+5+/nE17hp36cDmdEDAKGBsLO7QH25zfzjJVrKVDoxfBwSMAkYBo3RAOiAdkA6QDnztL199zeknGUgHpAPSAemAdCDogIBREwNNjKQD0gHpgHSAdEDASMLQbEkzZumAdEA6IB0QMK4JjN/61mtu/nfX3b/+06vuk/Pws3tLszz9ySQD6YB0QDowLR0QMK4BjCfH192/v/+q+8+n5Z/lWZm2P8XB0SP31eWFe35ULnNwb+7cxSN3eljOb6M7dPrB4ffcv7z42D0+vO74fuh2RG9axkPjpfHaVR0QMK4IjAZ4/9ECiAyUVqYNHAWMMiy7aljUL+n2lHVAwLgCMH77268VPcUfnfyFu3X4ijs9+kbiRZrnaHWWVRR5jMvLbFkZq7xkLB2QDuQ6IGBcARjt/SF7hbi/882vu9/86Foxz+rkwl/0LGDUH3aRjihfOiIdGF4HBIwrAKMtrgEY8vXo8JViupWxOrkCh1Dq3D2t3iEeHN53Ly8vnXv2LP463jHePf+0ePzQJ+fvNNqytsP7wU/d++cf1/VQ9uD4A/dJ9R7Rl6Vnfq/I93l/9Dz8H1QylUylA9vXAdXzGa0AACAASURBVAHjCsBoq08ZEO3+6Nor9c9Cqnm+1ckVnIERoPjyXvQsn84vB118E0DthXvx8fc8LwEMP3XvH193Asbt//lyfdCzxkA6MA4dEDAOBIwAxxwQ8bwQGAsrUIcOpdYeY7VS9uDwHff+pwJGGaNxGCONg8ZhLDogYFwBGFtDqddWD6WWQLCUxoqzcihVwNjw3lmuupeBlg7stw4IGFcAxrbFNxZOhYeYX0uLb7pCqQeHt9zzi02EUoOHaH/8pscY8wx0XxS+XdQ7xv02GAIMjf8+6ICAcQVgbPtcow0Y2z7XYGD0QGXhVCy8sQ//Hw77gX9XKNXaZw/0k48/rhfjMBjy/T78QdRHAYF0YP90QMC4AjDaH2WID/z1h9u/P5zGXGMuHRi/DggYVwRGgOM6W8LpDzL+P4jGSGMkHdg/HRAwrgGM9ofRJuL796eRodSYSwd2WwcEjGsCo/4gu/0H0fhqfKUD+6cDAkYBoz5dkA5IB6QD0gHSAQEjCUMzw/2bGWrMNebSAelArgMCRgGjZorSAemAdEA6QDogYCRh5LMGPWsmKR2QDkgH9k8HBIwCRs0UpQPSAemAdIB0QMBIwlhlZqjPNfZvNrmKnqiO9EQ6MB0dEDCuAYy2+83YPvCv91h99sz9+b1H7ivbWu4oHmV1lX/Og3duu8c/PHJ/VZ0/2cbLweG33J0fftfde6fM96L8NrrbTAePT/7v37q/fXDkTn/ylrvzZrk/2+RLbU3HOGusrm6s9g4Yb/7Nd9yzn/2z++s3bq4VOhjrlnCnDy+cm9/3fQt7sW4eGAEC9947cqcdwLdPwPhX773lHv/gjTAOb+4uMPYdexn5qzPykv3yst87YDRA/NWv/83/VgXHtk3E7YDiW4evuNOjbySnbLRtIr4JhbXDjb96eGst0F+Frzd/8F0nYIx/QJPH6Xvf2vo49Bm7GsxaPPI+NLhMn7Hn8rqPeiJZjFMWeweMpojrgmPbsVN3vvl195sfXUtAEcdPlY6d2sSf4uqA8S135x15jBjT/QLGxWMPueg6TiDQuKTjspfAaEqwDji2HlR82H4eo9XJlQ/vA1/eu+9eXl7WR069vBfeRTXyLx6508Pr7uAwLQ8P0UAxHls1dxdv2jvGuXt6eN35EGt1b3z4slXINeeLj5/68ssvHX6fnL/T6ENel58PDt9w937yXWfv2fDDO8YDH1687d6s3jfyc/Ro0vp457go33jI2378k9gW81gqC0+vi0bIe8vdee923TfUM1Cs+/uT2+7mTQulxvaZ7mN79/je4nevXMdoo63u9CZ/efl6PLKxivTxvjeMBcrnMtRzalglj2nLY2+B0RT39t1j99nnX7gPP7pcyuB/cv5qwyu0sxjxs5AqPEVcrU7+ZwHwOQKsAzuTsXou5ntQjO8NUQZgyh5jft4j8nwbFcjmPA31DAMMMDO6BhgwrAyElsfPAD4GM/9+sgKXxfnBiMO4e/q28IfACf0En1zWl6+AgtNTHiqgaHmPyB5j2rdQD3Kp+9L1brbAS+QxLuoBLaONfpXec3K5xXQCMJZkBxnqOm0Q0Pg1x29vgXEdj7EEjAaAbQcVW14XMALUgpG65Z5fXDpLy0HP5/NhxjjU+Nmz+r0iwM+XPYoeY6BdeZpbWKlaWmjDaQwWnjfyIHPDHXiH52JyifeW18gvrH4t1fH1CmXb0plGAJ4clOJzKzAW2kvkQp6b9ybfvO44H/0Fj/BM+Wpg3sUf92MxnaasmQfdN42qZDJ9mewlMK4Diqb0raHUa6uGUuMyfgZDvsefbZG3NwQwDhFKLRlzTrsaYIzAVcuzAFSWx7zWZT0gBxpdwGPlVwVGtMXXEi+W35bu8zzAxv4GMATvKdh100nLMl+6nz4AaAzLY7h3wLguKJoitS2+6fIYS4tvAHz4vMJo87tA5KceZfD6OO3pPLxHtPpdwIg838aWQ6nwUtJQajTc/vOGPFRahSmtX8vlt4RSq3BlAGWARB7afMPdqT2udGUpA8jKwFh5hKuEUmOdlEekm5ze/EF4l9nFH8YC9ULZ9LvRSKcJjCw/a1M/yWDXdGDvgHGI7xjbPtdoA8a2zzVq4JvPk0UztljGFK3OrxbjQPnCu8O40CYFyfi5Br9jNFB09eKdEK5lQAbtIa8GJAjxlRaZGNgh//QHt+sFKrXh/gHX58UrlbFuyQ+yC4AH+vyOLDfs4TksmEnKUVjT6DTzIrCzR2btt3mMnjcfNkZ7PRffJHVIFpRuPKZg184fZJ9OVOKioUhHwDjkf0K0pjGJ2DtgHEoxh/jAvw34huJRdKbxJ2RPVGM2jTHTOO32OAkY1wgFrbslnIBxt/9cJeMZPEvy+CqvlFe/luopbf90RWN+dWMuYFwDGE1x19lEXMB4dYp/lUaHQ7cW/hQo7qceXKUOqu1unRMwrgmMUrBuBZN8JB/pgHRgajogYBQwalWhdEA6IB2QDpAOCBhJGFOb1YhfzcSlA9IB6cDwOiBgFDBqpigdkA5IB6QDpAMCRhKGZl7Dz7wkU8lUOiAdmJoOCBgFjJopSgekA9IB6QDpgICRhDG1WY341UxcOiAdkA4MrwN7CYw4CmrRdVcV7uDmqTs7n7sHN+Pm5bva1yH6dXB45B7Mz90HH3zgHr87DtlpDIc3hkPoimjsxrhMBhiH2OMUSrsIEJGP8m1XHBiMg4Lbyq2SfnD4tntyfu7OTo4cG2YzzvY7P5+5u9WeqsvS31WjCpnVMpq9PUh46MbJ3J1XtMYiu03wEWiGCQBkaPqX69fB8czrYNDDdILFNM5p8mUyBE2+PjlOJ2cYQ7TrZb+Grue863k3gGvT4zgZYBziVAwIE8C36Iry+RU71tiBwi/ncdPuvNw6z2Z8amNceSy5EVmH/pTrYqLA8oCxztNgYNfp791ZmKCsQ2PduqU+r0uT67cBkPWdJ2EeuOan7gY2ujc9rYALoIYx8DpMZbm9AKDNyR0AlMfNeABNpqF7gdymdGAywGgCGBIchxIojnIaih7omIGAcdi0UUSbU7nm8sgN8tD92HVgZADDBMPA7kkFSB40W7zvIPvgNTIdG4MwTqlHibEpgZ0Hy/mpe5BNRPi/gPq6ChQ3qQOTAkYTxBDguMhTRH4fwfcBxlUO/mVjkAMB81UbppMY3jJARR2Aq9XxBm5+6l5/w96Thdk6yj05DqHb82qGD7BB2AtegdFpazPJO7Y2QljOZvswuEaPecrbQV5bG3l54/f1t2YOfLNs+L5Rj8JzbW1ZfTPgLIM7JLvY31DGhw5PIi+5V8TPrXL3739jm152VVi95iMbw5wPK9d3vNBH345vG3ph+lABnm+/6d35dtljtHvyEGMfs3BpVi7wH97jGh/5RIT/C1ZWP8lg0zowOWA0gdy+e+w++/wL9+FHlyv9SQB8i659hN8HGPvQycuwcYCBgWH0hg/vvCqjWYddaWENz+BBo2kAg0FqGtI0fOhp1WBagSh44DbBDwC2eh+V8tc0vtb/hEfQKbYRjaivVzC0LE+AIkC3rtOjP1Y2GYsGeMQwH/gHODAQ+jaTuiW5H7kHs7YwZdbnhFZ8H41+LzdeYTwYgEJfME7WdhMYQ/+o/54neq7G3nSu5qvltQDLmO+tnp/QtXisoKurwHJIHZgcME7RY1x2wHJDAIPLBgY0a2+nWmEayvJMv7pnQ8r3BUPFgBrbiYa5b5tWt1mWPBFaxMGgbwDWrGfto1+RF9/GImAs5LNMu9oy+myoGeyKcqK2uKznc4HcrYz9bPwhD0xYmN8GLWoTNLh8V/9CXgRG6Bin8z3oex2lxTVIN5nUvPuwaBizOp9kUKdl/LO8UaaUhjxdBYpD68CkgHEIUBxagH08xlVCqWwI2Mjl/HcZPSsLOmbI4DGxwS7RLhp8D6AApghu1kag0ZaXl43PpXbQv65+5TznZUED11I73TxHEDYakKHdJ7LLDLrPpzQu26hbmpB40IieOtdv9JkAZp3+sRx4QnbjZObOKi/R0yePzeSBCID1q+1XAlSWpZdJJQeAKV/heTNfbW0pvX0cJJvlZTMZYBwSFBeFUJHfR6H6AGMfOnmZBMgKRhTlc1BgQ2dlvHGdz9yTytuq0+owYup9+fwqjAkg9Wls8H1+9AS4zSY/EQgjbQbRGHqz/LszhO/yehGscpCwet54Zh6MGfTofUbAWaY/gadYNwUr4zHyD75g0EPZKKfAI/pXkDvJOPapXL7ExyrjVbcze7sOZRs4GS3j1+7RHy83AmR77vo1QTAd07a6eT3+L7TVUXr3WEg+y8lnMsA4xu8YTdm2CYzJbDpZGBGNL4OU8Vcba5rxp0a1aaBDvWD00SZCejGv3OYywOhpVV4S2klDeeU2rF7RaFMYzxt07nMF9minb3+sLTbULLuc/3zxDfNp7Z7NZoVFT833b+CRyzMtAypeQOX5WKN/Vt/6yABoaaWfTTbAH19t3KBrSGeg9jz2BFWWt9UTMJbHojQ+ShtGVpMBxiEHHB7houuQbS5LKw9fLVtf5Yf5gywrRz9utDJz2fpXWb4Een3ActM8G1BiwrTptkT/av43Y5P7XgLj2AahxE/wvGIIr1RGaVf7Jw4eUgh12lhozIYfD/MW2buXzg8vY8m0KVMBY0vISMrSVBbJpCmTEFqN3x3m4UPJrCkzyUQyGbsOCBgFjMV3SWNXXPEn4yodkA5sSgcEjAJGAaN0QDogHZAOkA4IGEkYm5p9iK5mttIB6YB0YDo6IGAUMGqmKB2QDkgHpAOkAwJGEoZmdNOZ0WmsNFbSAenApnRAwChg1ExROiAdkA5IB0gHBIwkjE3NPkRXM1vpgHRAOjAdHdhLYFy04w3ypcjTUeS+Y8Xblj1+186MjNvO9aUxdLnwLeTV8zF0v0Rv9/4/+zKmkwHGse2VenBv7tyzZ+F3eeGeH8U9L4dQnnwXlXz/yCHaGDMN9B/7bvY5zaFPf/xOKtUeqmMBpE3wkW88YHIsbT7A28D5vV6r48tMlkyD87BPLcYGV2zbludj7LSLjYCyz390DGUmA4xjOl3j4PC+e3nxyJ0eBjD0IHk5d0+r5yEGNt8rdZ+AEcYahtYb6eqkjHVlOwY5wmvl/q3bL67fBkDWd95ezU8+aF9Xr3P1qSvZySHZyR/cXgDQuDVel4wtb1P9Zp50LxBeRwcmA4zWySHBcR2h5XU9UA7sNZpx4xl+l7HJ+ZnyMzzFTRnPMchxk8Dowa0CO0wwDAyfVIDkQZNOHWFdCbIPIV2mY2UCz+Vwbw52+TO3kes15+leYDYWHZgUMJrQhgBHvENcdO07SIs8xlUOKs4NCBv02oCdxCOAAKJ13rG9Pwt7eBrIwEjmITUAEcJhQ9FJPRMcbRW8kPfP/sH9/TzdIB2G+PW3ZguPP8p5TtuqzvwryMZkiH5anTtvmIyip8N08yOkcq+InyPQhf7hRAoORVq7fhzy46FWPUKq0D/TV4BSyl8lk5t2NJTdxz6zjvsxgMeYeYixj+krA4zbDURPsoOHeWysrVyvuX3dCxjHogOTA0YT3O27x+6zz79wH350udIS40WAiPw+g3Rw9Mh9dXnpXt5LDUaful1lGAitHD/DgOPdTTCC1Uy/Mry1ca7Oz0vLBsMY6EQvgI1f3UbufSTv55hOAehgZCtjyUYyN6i1Qc8Mci4j8AUAt/zEoKP/CZ+xj4kc6XxA0IWnClnUcqSyvk16rssS4Pi02amrAcP6lcmjbiuhFcB1lf6FPoQxYQAK/GGsbJIS7lm2APGUpxj2NBkD3FEP/UYdpPPV+IAMLd0/t3isXE/3Asmr1IHJAeOYPMbThxfODRxCbTMeiUH3xj8a+2CgGBg5L3oLRjsYz6psy6GzZpS5XF4vf85BLuTDS4wH2LIBZfps0Eu0jB5+pXw20Ew38hHlkciRAakAyNwWe2CeLtetgJ/7B34NCNhLvXvYlAfT5jZBo2//WI7WLvjhdL4HfQ9WhdW5xkvN+/zUPZhFOeYyAK38mo+H5fMY5OX1HHVdsrg6WUwKGIcAxaGU7en80rn5/dpgd9FdJZSaGw9+zo3NOsDIs3nuQ7ONboDN6aQ8RZDkNswgGwh7wwwPLwN9Lm/37cBRgX1Wn/mw+okcGdwGBkZ4YPD8EvDLgDTJK/Hhyy/uH/eVZXrjZObOKi/Ry488NpMHogm5rPm5BKgsSy7L97keMV9cTvdXBwKSfVP2kwHGIUERodJF1zaFCeHTYVeh5m0BNJDORig3NmwQm3kdgFaFHeFZWFt3Zwi5tdezctxOuC+EUhGGzYAAffKAMJ+5J/PUE/HGM/NgzKBHT7arrZxvA+VIP5EjA2MmiyDT8zoMGMAr0gk8QlZN4M8BvKt8AowVHwBUL2sCS5Z7GIe0f76d2dvVYpnwThWTD/P+eALD7WJM2q4st9BuKmfUM7ndoE8+rB63afxx31BP16ZxlkyuTiaTAcYxfceYfMOIbxmfPRv0PWNuQNgwdRnHZl5qwBr5HhziohSAZKNcwxMr0Y108D7N/twAGdDmP3xuOJFnwIIwnjfo5OUE3trayvlKgSORIwGj55NkkS++sXwbE/B0NpvVC3dK/UNaqTzTMtB4vWMRkO978u6yu39Gu02mlse/XMbg1capwf/JUVo3kx3o5vUYFK1Mrteop2s6NpLH1cpjMsA4pKIs8hSRP2Sby9LyHgeBwbL1p1KegWpsPOde39j46+KnBHo5SHXV31SejXdpgrSp9kT3agFmqvLfS2CcwmDBK9rlsNMyobxNj1nwdOJqzX2Q/6ZlmtM3b5EjCXm+ngViY9EBAWMWXhrLwOw6H+Y5WOhuTN5DAOoYot3lScmu65f6J5BdRwcEjALG5N3ROsqkujJG0gHpwC7ogIBRwChglA5IB6QD0gHSAQEjCWMXZjrqg2bs0gHpgHRgPR0QMAoYNVOUDkgHpAPSAdIBASMJQ7Os9WZZkp/kJx2QDuyCDggYBYyaKUoHpAPSAekA6YCAkYSxCzMd9UEzdumAdEA6sJ4O7CUwYmebRVcp13rKNUb58ZZlj9+18xjj/qdXxW/4fvLq+biq/qvd3fufTX1MJwOMY9or1Qb94PC+e3l56ZztlXo5/Ibi+c4rY946bRN/AvQf+3f2OQGiDx9+9xWc5OH3+7x6QNoEMOabFZgcSxsW8NZxfn9Y2gCcaXAe7xmL8ck3a0jphh2FtPONALDPf3QMZSYDjKM6XePwlnt+EcFwmSOo+g6636eT9krdJ2CEUeVdcSytZNj7yhPlxiBHeK3cP/A3xLUNgKzvvCWbn3xUJ6BYu17n6sOUbbPyuK+pz6OyzGcAUNpOj04D4XJ2bzxsqt95W3oWEK+qA5MBRuvgkOC4qsBK9fxpGxeP3Onh9cFeYJtxYyAYg0Ev9X3oNHiKmzKeY5DjJoGRAczuzZMzMHxSAZIHTZpw8fgF2QcPmulYmcBz2btmsOsqZ3Ryveb2dS8gG4sOTAoYTWhDgOOid4vI7ztI5jF+9fBWKyiuclBxbkDYoNcG7CQezQQQrfOO7f1Z3I8URjIPqQGIEBIbik7qmeC8wuCFvH/2D+7v5+UzFV9/a5ac31cag5zntK3qWKaCbEyG6KfVudNx3FN+7FTDK6JjlyLQhf7hFAsORVq7BvYN3lc9dqrQP5MVQIr5rXXiJtqP3h3L14MhPMbM64t9TCd/DQA1ucxP3QOSNXTK2sr1mtvXvYBxLDowOWA0wd2+e+w++/wL9+FHl61g1CVgAN+iaxeNcFhxeMf48l5qLLrq9c1jILQ6/AzjivduwQhWM/3qoNvaOMNrSN6rBcPIBtPaYONXt4HDhhfSKQAdjGx1UHECYJnhrQ16lp7LC3yxsU0MOvqf9Dd6OokcE3DLQofgGf2nsl5W9Ay5Jf2z+rNTd6OKIqQ8YqIQ9KYJYl2yrMC30L8gm/g+DzIK/GHMre0mMALE4ak3nqvxR36uLxgn6ycmAVFOUf5dHito6CqAvGodmBwwjtVjdAOGUkvGIzHojUOD42G8TbCrPKhqUQXnw4jBi8LVDCqX8wau0Wak641+9v4JYBG8pBQIcnps0Eu0+E9Syk/binyFdqJs7DmRI4NbAZC5LQYvT5frViDKoAGebSwhVwAn89ugVeKD6DfHJfaP5Wjtgh9O53vmkRfXIN36X/PuvcAIcDnfXAeTMqSxzC0tf0Y5XQWIY9GBSQHjEKC4CcGHFaoX7vlR2XNcJZSaGw9+XmwcowFrlo3AwYY/l0tXPSvL+SU6wfgHPnIgQFtmvA2EeSLAdFGOr4vbiv0LfEbgsOdEjgxuJUCitGWBER5X7bVxWwR0nkfOozbR71SW7f3jcizTGyczd1Z5iV5+9I7R5IHIA9orXcO4pJ4myxJ1fL+zSRKXY75QR1cB4th0YDLAOCQoLgqhIr9tsHwYdX6/DuOePrxwQ3qM1i5AAzywccnBgw1iMy83pPE5lE1XCd6dIeQWyxkPXXRBByDgy5OBbwPGYERn7sk8Ajn6nnswZtCjJ1sINSLk2fBsewJjFYKNXpbVO6/fdwagi3x6A5+FilE373/sE2QbaKN8oI08k/vq/QPwQObm8WHyYffszXG7xmPXj/XP9y+TM+qiXehCSW7IQx1du2Uv+WxfPpMBxrF9x+jB0L5h3NB3jNsARvvDBcMVF6XUxjozfF3A6OlUwFKH3irQCHkpEPAf3QwuG2vkGRCCljfo5OUAiJGPEGXkIwIYTxosnw18Dgwsi3zxjdW1MUGbZ7OZO+sCxsorLJVnWtb31zsWAfm+J7LMJywp8KOPJZlaHv9yGYNX0wEAHNJyMMtll9DNdAE6ZWVyveZ6uk/HR/K4OnlMBhiHVBJ4hIuuQ7a5LK085LVs/amUZ6AaG89+DLKw4Nh4bOOnBHp9wLKN3lDpNt4MlEPRFZ2rA5FdlP1eAuMUBhJeUT5TnwLvfXns8jr60hiqXPCQ4ju0fZD/ULLrS8eHecn77VtP5QR629YBAWMWXtr2AOxre+Y5WJhuTN4Dh1KNt12elOyr3qnfAtk+OiBgFDAm7536KI3KyLhIB6QDu6wDAkYBo4BROiAdkA5IB0gHBIwkjF2eAalvmuFLB6QD0oF+OiBgFDBqpigdkA5IB6QDpAMCRhKGZlP9ZlOSk+QkHZAO7LIOCBgFjJopSgekA9IB6QDpgICRhLHLMyD1TTN86YB0QDrQTwf2EhgX7XiDfClRPyXK5RS+B4zbsuX5V/3M2509ftfOrbx6Xscus6seM7W/2n9RcltNbpMBxrHtlQqFCydrdB9UjLLLXHnnFTbk2LtyTB/G5/0ayshDBuhzn1Mgcl5Kz34HlsJ5hqWy20obSmbMb6AZ98Ft27SAt49rbN7uT/4INDiP943F+NjV9HJRHu9ty/zqfjUjLrkNL7fJAOOYTtdgRcRm4l89vDVojJ73Sg3AGL2aTRhR7tOy9wDuIcEaxpppWtoQu9GMYX/WTciMx61t+zXrOwOTn3zQfrBe7+rN0cNJHxgDn0dlub2gk3FLva487Zc6vCFneet+fflOBhhtsIcExyGUxx8/dfHIPZ8P7zGaYQMI5MBovI/BuEOGQxt5eIowyGhnqOsYZDe0zFg2DGB2b56cgeGTagNvD5p0WklSl05VYTpWpqSHqNsFdnke6zbq67q+MZcMh5PhpIDRBn4IcMQ7xEXXLkU7OLzlnl9cupf3rrunC4BxlYOK2XiUDBKMezSwYXaPExQALghzpV4CjoEKdVCGgSivn4K0nZAQ6r5/NnPfP4/huj7HKIGWydf6ifbBY26QS+OQ84e6Vjbkzd2Dk3h0Fdo0uXF7dzqOfMqPnsq9In5uHQcKRVq7JuMG76sePVXon/UfQJTyZ+MVog6h/Rbvzs7RhMdIZ2oGuUJv0gO5u8arlMe6XRpbpQ1n4CXL1WQ5OWC0gb5999h99vkX7sOPLlcKXy4CROR3KRWDId931VkmD8BndXJgDAYPRi4YKxizUD6AFsDAp7HBq84KTOok+dGIxvbDcUEAgKRu14n05IE0aNHJ9ZaHX8mYIi/QWNS/kI93kiwvq5/IlngAYGGCUPcVhyBTWc8HPddl6fQInzY7dTcOA5D4fgF0FsqscFhxXbe9fwx6DECBPxyGbDrTBMYgp3gsVOO58j4hnzAWZbDsyjO+MDZWTj/JYGw6MDlgHIPHeHBv7tzFI3daGbyhgTE3HDC60dOh942ZgfUGKZvp+zQqB3ptBs4MONriqwHtorq+LQaMTlqVgc9WhS4ExoX9M7q5jOJzKzCW6FJaAIoIKPxckgv+7DaekCMmFHn5hBa1CRpcPoBf7E/IC885MGKMOZ3vQd/rHMkM6awLFg14MIvtWhnmG3Vw7crjMUB5XQWQY9GBSQHjEKC4ruARQnXPnrnGj8CS21kllMqGgw0f07V7NpjIKwEL0yjWYeAsGOaaNpVrS2ODWOIF9XAFP1j1mBt+lMO1RDPt3ziAMcghen6JXDI5JnkF+fftH5fjCdaNk5k7q7xELz96x2i61seDKwEq6ynGB9e2POYLZXUVKI5JByYDjEOCIkKli659B2poj9HaNeOBUCgbu5ynkBfDX5YfDFg0yD6NjC3qsDEMHgNCbcGTg7dh9e/OkNcMnYEeyidG3odSU/5qWjdP3YPjKsyYAUXgJ/NOqlWpi/u3IjBmvKJf9Xtb7wlHnlKZFeRCMjcZdpUvyQzj3xy/7v75dmZv15Mm81aNlqXbPfrj6ZJ3b89dvxzouiYwXXnGB/etq03ldY+J5LMZ+UwGGMf6HaMp5tiA0XgCeOQhvJBXGfFZDJkixIc/WjDUcaFKDXoZgKE8G93X8wUt3vg2aVldM7Y1j+TFeD6zMCwDeXf/uoGDDTwDkm+TeM0X31g++unBZjZzZ/V7vwIwVrJC/86oPNPqs2CJxycHnQDgEbCNtvWRAdDSSj/zHsEfX228MTFAq8xxAQAAAc5JREFUeg5mueyYfleegLE8Fiw/3V+tjCYDjEMqyiJPEflDtrksrTzctWz9rvIweAC7rrL7nlcK205FJiXQ6wOWm+6fgbZ072oN/6bHeOr09xIYpzBo8IjyWfoQvAsYy0YpyIUW11Sh1U2MwRDjOEUa5i2y9zvFPojn8v9nl+QiYGwJMe3SIOd9ETC2/7HzELJAsV1WuV7pWbLaFR0QMO4hMO6K8qofMsTSAenAJnRAwChgLC7K2ISyiaaMmHRAOjAFHRAwChgFjNIB6YB0QDpAOiBgJGFMYSYjHjXjlg5IB6QDm9UBAaOAUTNF6YB0QDogHSAdEDCSMDQL2+wsTPKVfKUD0oEp6ICAUcComaJ0QDogHZAOkA5sBRixk8yi67ZnErwh+J/fe+S+urxwz4/Ss+a2zdOm2sO3i7a91+N3T91Z4SSFTbXdRXeMfIVvGdMt1rr6MGTelHfaGVIOoiXP8ip1oBUYx7w36VACO3144dz8vp8pHRxtHxhLu9sgDftT8v6g6/Tb7zhS7UW6iuEfK1/ryKSt7iryaaNl6QD/PmM5RmDMNz0w3SxtfMBb0OGkFMiFaeR5Xka0Z2u+M05KN+xMpB10BJzQrU1c/z/mMlPIjxZiMwAAAABJRU5ErkJggg==;" vertex="1" parent="1">
          <mxGeometry x="2068" y="-210" width="454" height="207" as="geometry" />
        </mxCell>
        <mxCell id="22falqz4Or-8pj2Nucx1-17" value="Configuration config = new ConfigConfigurationAdapter(this);" style="rounded=1;whiteSpace=wrap;html=1;" vertex="1" parent="1">
          <mxGeometry x="2300" y="140" width="360" height="40" as="geometry" />
        </mxCell>
        <mxCell id="22falqz4Or-8pj2Nucx1-23" style="edgeStyle=orthogonalEdgeStyle;rounded=0;orthogonalLoop=1;jettySize=auto;html=1;exitX=1;exitY=0.5;exitDx=0;exitDy=0;dashed=1;" edge="1" parent="1" source="22falqz4Or-8pj2Nucx1-19" target="22falqz4Or-8pj2Nucx1-22">
          <mxGeometry relative="1" as="geometry" />
        </mxCell>
        <mxCell id="22falqz4Or-8pj2Nucx1-19" value="插入到第4的位置，这里的顺序就代表配置的优先级&lt;br&gt;compositeConfiguration.addConfiguration(4, config);" style="rounded=1;whiteSpace=wrap;html=1;" vertex="1" parent="1">
          <mxGeometry x="2300" y="220" width="360" height="40" as="geometry" />
        </mxCell>
        <mxCell id="22falqz4Or-8pj2Nucx1-21" value="" style="shape=flexArrow;endArrow=classic;html=1;rounded=0;" edge="1" parent="1">
          <mxGeometry width="50" height="50" relative="1" as="geometry">
            <mxPoint x="2570" y="-100" as="sourcePoint" />
            <mxPoint x="2730" y="-100" as="targetPoint" />
          </mxGeometry>
        </mxCell>
        <mxCell id="22falqz4Or-8pj2Nucx1-22" value="" style="shape=image;verticalLabelPosition=bottom;labelBackgroundColor=default;verticalAlign=top;aspect=fixed;imageAspect=0;image=data:image/png,iVBORw0KGgoAAAANSUhEUgAAAfMAAAC5CAYAAAA8u9b1AAAgAElEQVR4Ae2db48dx5Xe9RHszdvEXiTAJo4RB1AcBJi1xpRhWxSXpgWORsKS3HAmdpYUb7xZY26ygR14NAQErCAMYW/g9QIOFMdcEt4AlmXZsAFOXoVfIMgn0IcIklfZCk5VP11Pna7+c+/tvre757y46NtdVadOnTq3fnWq+3a98IUvvuz058UXX6xc03nsvGq3sdpk79qxOzk9dW+//bb/nBxdt/7N+P1Y+8/02t1vbe/wbffk2TN3cXHhP09O37Tfzg5/O3v7b7rvPX3m/tPiyiD9MOX+fiE3UBjMdzd45PrDrll/mA+YD5gPmA80+YDBfIezzKaOsTT74ZoPmA+YD5gPdPUBg7nBfJDlqq4OaPlssDIfMB8wH9jcBwzmBnODufmA+YD5gPnAxH3AYD7xDrQZ7eYzWrOh2dB8wHxg6j5gMDeY24zcfMB8wHzAfGDiPmAwn3gHTn02afpbRGQ+YD5gPrC5D4wC5v/t4Rddl88cO3zv+n338fmZe3x9mP9Nrmuzvf0b7vHZuXOPHrn/8Y1x6DhWW61r47GVC+8jWLq718bmi9fd3WV4T8Jbd+SdCbvXcay2GptPmT6bQ7qrDQ3mO47MNwXU3v5t9/w8QFfA65a3e1kuO753VsraVMeuztiWbyx6QM+9/Tfcg9NTxy/hwTW8oOd08UYv/YE6hzxuCqih2n71aOlgx0117Mt+Q+gRZMaXO4kPsW9B973DRfkCqFM1sdEyHhzGiVldmtgX/spHKettf7pwB/tRDvSw4/ZA3cXWa8H82te+7r766rXsICXXJb1L5cjTJSqXPMg/1yOi4ee3uv1w9m4tfeTM+eXax/dubGyrh8vzXuRs0ler2mOTutYpK4MqICPlMcgmA+jhIjsgr1PfNsvs7YdomNvSVP+QbT9YpBOmJj2GSlvVHqvqUQdNafspwdRPmJbH7moBV++DRTomU+izrmla1wD9CHDRATJ1XjsfD9DXgvn59//C/fj9n1SALiCX65Junbx6J68CL0TkDPI+bW4wb+8/GYAROemBtM++2IWsVeA1dNvnDnMP3QLQmBQJwB8UEPWgr1nhCbYPtx3C9wjhrmnavzS82c91XjtvHye2ZaO1YA5oM9Bz17o2oo/IHHDzS82PHpVRpb7uzpfuIWa1fon6zD2+JfeEw1K1wBERr8hClBtBmy5rM0yb6hJb+KVrWQqXT6FHWDpeurOXbqXL5Wf33fH+FadllvpIVF7kqbOzLos6JX9IO3OP74XontsqIIcdpczZH4h9tN2KPHK/X2RAX/8MAOWl84oNkzKxTt8H+vbB2X131KQH2bStfTl7HZw+Ld+/jfdwy7HpXdw8yPGAnJMfdArL8ljKrERcsmR6GN+jL9EQBndeco2gTeVx9ATA5uoSXUR3nYaI7OZLh/72QZkO0BS3FXC9nMjICgVFi7n2N+lTQucoLh9DtoAF9Ym9br4q9tHACnn8kvNR1AXtwRIxn2sbQv+QJ9bp+0C1W/K+0qCH6Jvt20z7xFaAZ6qf9G0e0mxf73dkj4pP0iSgKQ0yc37M5ZDPjuOBOPpiLZhLYYb3aweHPiJnuKOCLsdNYQ5oAXSoM3fdgxogBTAAlWLZGvedAVqBP0CUAFHyK1msQ1IXQQ36yTFXByYIJXCLh+OgQznhaIB557YX99j1/WiOzFMdw2Qm6lg8KAcbqnamZYu8ycTghnu8DBMXb4/EpiF/WRfJ3rR93AfrfueIMTcIslzADJDybRUIqiXSEirFfVEs46cDfVgCR9k6WbV1+Y13IhChZ64OTBBK4BYPx0UYhgkH9IYsPnZuewGeoEd8yC2xM+kOuVHHwi6YfFBebyM6h/6JDeXWwqJuCTu97ZDaKvPsRK5vM+0LbQh9wdAM+oXr/D2xq29PugQuMjD5kSP7QFOat0/NrRUpBz/k+u37uIC+NsylIwH0Dz78KLvs3rWzN4Z5TZTqYaqAlwARkXkJSwFVfLKcYcrl0C6+1q2uc+dIvsjJwa6EFyYXiOaLo0wYcvVBLy83Y5NE30rbBZyx7bUwz8mla9yetvaxvtlVi+KJ+tIeDHOqE3JWaR/KrHvUA1wrzDPRK4ASo78IsCo8OVJLwSJtSGR1qkvuxcb6vIwM7EpQ0kNXGhb9t13aF3WrhXmunXSNgdvWPvYDhh5gz/atyKI6IYfzV/sytk/DvLS3Xw0AzKXv08mX979s/0W7BdkB9nqCxGmlztT/uIYj9wGu2XFGMJfOFKC/+9555f75Nju6Dmy562HAD9BiWIu+TecMCrSNr7XVpcsA6gw/luf1yQArykknHriOY5s+1bbuBuah/fFhu0Z7dIJ5Xd+m7YOdcFxnmZ0HOD1gQy6OOeCFAT8Mvrp80zmDopRPUVVbXboMoM7w03XkZEY5caKBa3zMlW1ue4SdyEnsTMDJyiWwcntEDp/r9sX0+LBdU/4kjepEu7u2j/PxBPHq0cKdLAuYi3xaLhd78Dnq5PK4Bts1pem8OMcxVxZpdhwP0DeKzPvqyI0j82K5vIzg9m+7xxK9FtcrS99YEq5EpykgGXgALZbgpe0+mmxbZkdd1++7x8VT6pAl+jbCS7VL6ny4jPejQ/0xmpZ0gbiP3Fduewq72shc6YS2pPfMo06pjaSOc4d+gr4oW7Vpmj+1VVju7963afukrk0/MsjpZUyAEbIFOJIHkRDnZxg1wVtkcTpAxAO6H3DVkn1tXdeO3d3iL0uQ5VcHGJQ0OYj1p0u6B4sYLYb6Y1Toy6zd9o4wL+5lx2hWyp2W9+8DcKNOqY1CXpSFvny7oCl/AvNCj1p7+/SoBwNc6vX1LN4oV1ewPC7X5TvrxPVKWf7o9sLnYt+yDuHWANrP/sUyoR+3TafbedoPu7LHLGAuxkOExw+X+esFfPiBrsoDcKsssy/jA2O4X47Ow+QhV5fkSR4sS+5VK0DLcjpNAvBwnshlEPr2SfTOy/D0P/MmfXiiEuyUwq4O5j6vj5DzD8BJOi+Zf7xclg/PAfzcBlxDGzh/ImvdB+DKvk3bJ7I3/chgqwc5ATQvQzNwMbgiHUu4ooceTJvOSwAvYl0sK8qLD3LpdInYSj2Se7kpoBkmARaxHEAAO/bX9m4w9+30E5Cgk34ATtIBRGnHyWJRPjxX2pD/h11MYGAXzs+yBK5rPQCXPG8QwSqyfbTd8hChb6/yL+iKvtB9gOu5skkaTeQkL39yfs7p9j21167sMRuYD21AQIdBNHSdU5GfW9Kfiu6b6Okja1r+3ETWKmVzIFql/Jzz+j7pAMUx2kCDmCdSu9RXJhoM/l3qYnXXTxxGAfMpdJDBPDhRsENcSUD0z8vdU+jPPnREpK2j8z5kN8kwmMMXJYKPKwm76o+mvpp6mkTlelVn6m2aq/4Gc7WkVNfRBvM4I0xuadB/8etsZ9ej7fqwhcE82lMv/W97YtVHf5qM2J9mi/VtYTDvCHNzsvWdzGxntjMfMB8wHxjWBwzmBvPkYRf7wQ37gzP7mn3NB8wHhvABg7nB3GBuPmA+YD5gPjBxHzCYT7wDh5jhmUyLHMwHzAfMB6blAwZzg7nNyM0HzAfMB8wHJu4DBvOJd6DNnqc1e7b+sv4yHzAfGMIHZgfzL3/5Zbf8V1fcX/67L7onp+Ej3+WapA1hRJNpdjUfMB8wHzAf2KUPzArmR4dX3F9/74uu7l3vkiZ56gweXoASX4hSl+8yX+f3P4eXdMSXdqxjF/xnWt52ZW+ZssFwHR+yMuY35gMvu53D/NrXvu4eff8HG++6JpD+m4f1IAfgJU8d0C8DzPktWQxSvOOZN3XI/UD6hrl/w1SHV6JC1ykBX7/QRGyce6kJv8azslGLfvd48X5v9A33J67hmMoNky57o5eBD/5hx3n5ws5hjj3Rf/z+T9YG+le+8nI2Iv/u0efdjf3PuOPrn0uidYnQpYx25ksBc9pOcVNA9hGZY4tG3Rf6fFNdtbyhz+ug6TfUoL2pvQ3pXeL+3eJq9zNMYHxakRf2kFdtPljEbTvRLs6Lazjau7arv33Yxo5mm6n6wM5hLobbFOhyPxyRNx9vfumz7r9896VsmpTRnXYZYC6QQXQIIAAW2h5t5wbz/MDHIJXvfsOMArpi66bViGDTsKMWy5G+CP2V7rYl1/WEqC4f+pN9ANfsmO9Ls4vZZSo+MAqYi7E2Abo84MYQx/fr+5/JXpd0KaM7ScM8nBdbfco2o8Xe5SiXpJ+fucf3luXWpZJnpXR6x3l8D3zYsxvboaJeHA9On7qLi4vK58npm5W2oQwP5E0w10vEAH64HpZsNcxFdrlcz9EnLRVLOmQJhHT+IDNe7zLx0GX0xhCcntsmc5V00beqU9gbGrcoEPlWbVVA2u9vnX/WwAMckbmsonDUrvYYR59WYC72Xh67u2Rf6Cxl2Acgw44GLfOBafvAaGAujvTawaH74MOP3LvvndfCKOdw8tQ6AI7j9Zc+4/CR5XZcx1HKaFkMc4CYdwPzW30WQEc6tkQFgAHebuln7nGy3/a536+8lKUmD1rfdc554AfMAVSAyl9fHLur+2H1IgEM7XscIFiAna6zXk2yJF+qj0AxRp7QT+DP31P5AaQMq0RfD864hSPkAJIAOSYY+fRmnXjywDZhaAa5mASlu32hPZhAlboUk6DyvIjycY5ybEO5Ju2XvkS+IDe2QfTifdYhx47THsyt/y53/40G5ptE5jmYC7QF5oC3PrbC/FYaZftBcv+Ge3xWADeXTtdye3zzNf9don31kckDYI6JQl8/Uj2IA1wY9HU9kh+gB7Cq0SYAVUSnBGOWl5Ml6QwiQAh14iigrtPVg5uiV5HJebPpFPF2SYcefKzTScMctuXr/B028n2TsR3bRCYgdxcRyijLNvTtp/bV5dFlkM+OlxsI1v/T7f9RwHwTkIvz1S6zN8C8bZmdwQsHD5AN0XQ2fVWYn913x0X0izrk2BXm6yyz8yDO0EvqLyJCRLsJwCkCz0EJMvFUNqLNnCypM9EnAyHoBbmAY3k9UybkDdDrAmtE6TmZufJlvsyyN9fNk6erRwt3Uuy97WXSE/xigy6Rcs7eogvbUM69zdUEh/OwXmiLHac7iFvfWd+JD+wc5puCXBpR9wBcU2Te9gAclskry+wFgJGO6BkAXm2ZPUT5+DE+XIb/uEMWZCO9j6MM5CVYMzCSOjTAQtRYXU5nuAhA7hb/4WfwNsmSuhgyQV5cEg/piPxlaTpN87oWy+hok9Zfy4RuAPiq6V10AixRl0T0op9cl++o2+tKkyM5b/qwrTifvo56YZMwoYoRPfsAy7HvzfY3+5h9xuwDO4d5H/8zr/trWh3Mu/41DcAul8LVPey96/fdx+fFA3K5B+BWSX/0yN8vF2fZOcwLyGNZ+WSxcCd4KIvgwzAXvQUqKINIE2DBdZaFMoCOb3uxKoD8iMS1HEkHFAFklMEtAZGnZWYfgKM629KlDq0TzlGfHMUW0I+v6+8y2YHefBSZus1sJ5ajYS5p2iaso8HcoMT+Y9/n4Q87h3lfjtTHS2M21SW39M4y29I571Df9RLvUPWMWa5eLdC6tqXr/HXnOVB3AXydvL6uC/wZ7n3JNTnzgIL14zT7cTYwFwcUoG/yOtdVnDhEz/HVr4jisSzflr5KXX3mRcRWF+X1WdcYZIXoNizViz66/W3pY2hDnzr4WwD0t8E+ZZusaULA+m0e/TYrmItTbnOjlWSZnf4njh9HWzry2XHYHxMewsMytp7ItKVb/wzbP2Zfs6/5wOY+MDuYm1Ns7hRmQ7Oh+YD5gPnAtHzAYN7yBLE59LQc2vrL+st8wHzgMvqAwdxg3vh3qMv4o7A2GwzMB8wHpuYDtTD/gz/5hbOP2cB8wHzAfMB8wHxg/D5gMLdJi03azAfMB8wHzAcm7gMG84l3oM2Yxz9jtj6yPjIfMB8Y2gdmB/Ob//ap+4//4d+7vzp93T09+7L/yHe5JmlDG9Tk24/WfMB8wHzAfGDbPjArmD9YvueenH21fqe0s686ybNtI1/71i/dOz9/5vcd/8vv/9r97Nlv3Tvf+WBtPa59Z3MZQ9qgq36wy4/+fH1boB3X/vw37tnPf+3ufqteVle9IPMyHc02Bp/L5O9zbOtsYC6Q/puzK7UgxxaokmfbQL/7w9+6Zz/9lYf3KoNmHexWkdG301771q/cj549cz/74S/dpvrVlV9HZ4Z5ndxN7RbKh0nZxcWFn5yJHbS+ogvSn6mJG8vQaSKH7Qu54j+Qx0eZBHnfevYb9+2GSQzkNB03tU2T7FXTUvtt3rZV67f8NrGZog/sFOZv/tmH7vVl3nHkuqR3MerBnz7NRuTfPfq8u7H/j93R9c8lkJfoXcp0kd1Hnm//NMBvVVl1UOoiZ5OyTfI9NDExKVYc1o2s+9SxC8yb2oW0Op3qoCl9+4xg6mFMKwReryIdoIa9cjqLrB+1+EsAb4Sc6ACZaMdUj2yTqbbB9M6P6WaXYe2yU5j/xfsfufef/qoCdAG5XJf0Lg4g98MRefPx5pc+637y3ZeyaVKmi+w+8swJ5gI1RKN14Otqs03Lcz0MgU3k5somsouoG9Ato+NigsM6yfcA8HBbheWENLn9Ur3l0uYvGt7cJ7r+KZ0H21ftMaU2mK7DAsvsW2/fncIc0Gag5661daA84MYQx/e6LVAlXcrk5CJ6wnJmBFdYXsb1SjQmy6k/jMurKCcDL5f5U3+/O0ZVXJ9fdv1hvPebA4vorCMzGcyTOv7NR34pvLxGkSK3mcshrxyhO+fFdwZHF/1KmGVso8tjCbq8JVEs6UM31ovthnTcM9dyofu6dgM8uXzZru98UAA79inqk6MHOCJzdV+/Ts8mmOsJgdTBfcJ1133nfocfc9s4vbRtuRqT/g64T3R9OTlN/uV1+Pmv3Tv0m2mSr+uz8/qB3mwzf9vsFObiYAzvO9/50EfkDPcuTvjk7CsVmAvI8ZHldgAeRymjZQMQegDJXU8G6QI6JYTUA2o8OPOgCblYIsXgvgqUWB63B7Igm9M2+Z60pWaZnXVCG3O2YR2DPWNUFsrxeXiIUNoDmdw20WsIu4W6AqgZmkH3cJ2/s22DHeISeOW8iPK5HVKebZzIq7G36AX7cv7cd+4bTq+9ThOQpj5hWet+Fx8Q2MMeQafoA+vKtXLzB5n18S/czmEunQCgf/Dhr7LL7m0dlYO5QLspMs/CnAYurjMXDSUg8jCPg05Ii+c8OPOgmZVLOnAdiT4U3QNs+mGqurIsZ9XvGhp1dSRtbLBNWf6nv0nuO4teGNgRGeIoE61t2k3DvASNbxdgLtFqGpl7W6mH33S7ZPLxzk+jn6A/2F9wzZelfufr8r2ujM5X6y8Z2dyPvn56sA/9IUc9+dV1dj3P9WvXdnWtw/IZ2OfqA6OAuRhXgP7ox7+s3D/vYvi+ltlzg4nUn7seQBQG4nzEEgdpHpB4gMzKXRHmsA/ACKjjHPBBPj4KcHhQxvemwTlpS02kmLSxA8yf/fy3lb/r5WwD3XNpfK2u7axXKatoQ53duJ95MnP3h79xP/t5AXPpM7pnLjbic9SljzxR4DS2cZfrrBfnb/oOG5XtVjDXPi2y2MZNspG2qn/5/lG3hOpsgTrsaHA2Hwg+MBqYb9IhdQ/ANUXmuQfgELUAgHL+jv8LVvw7FvTkgU0PfAwAyc8DEgOlWl9YSl51ufid4n/aGKBFf/4Onfs4ygAN2NfVUW1jnNiwbbh8KENL0n4SEM+DHTkSjmmQM5TdAEvUg2gUsEK9oiO3vc3e7BecN3dd+xjn5z7h67nvol/WXwjmaCd+B5Cj/VWuf/un6YoE8q5zRL2lf3mdou+sI9PKGOwviw/MAuZ1f02rg3nTX9MAFRmw8XCQOAMGMkSv1bQ46IRBKZ7z4KwH+7S+8BAd4IDBDXV6nX7+a/cvaeAV3UQ+8nBEmIPNpo7N4Oiin4YQ2wblAQ3YGLZl20j7kM/3By35+ugy8+AgbNKH3cTG6JcmG8okj+vFd55g4RqgpeWxvyBN+w2uy5H7hK/Xfc/5C8vndOgKv2rqk7r6VrkOH0C93OeryLG8BvHL5gOzgLl02phfGrOKU3HEv0q5beX1+tGS8rbqHUM9OVB3AfzQugt8DXoGr6H9zOSP28dmA3NxNAH6GF/nWvcjCJFpXKZEVFIXsdXJ2eb1Kei4TXvsui6JyrGSsWtdrP5xD/bWP/Pun1nBXJx1ahut6GXLMYPcBoN5DwbWv9a/5gPT9YHZwdyccbrOaH1nfWc+YD5gPrCeDxjMbT/zystz7Me03o/J7GZ2Mx8wH9iVDxjMDeYGc/MB8wHzAfOBiftALcy/8MWXnX3MBuYD5gPmA+YD5gPj9wGDuU1abNJmPmA+YD5gPjBxHzCYT7wDbcY8/hmz9ZH1kfmA+cDQPmAwN5jbjNx8wHzAfMB8YOI+YDDPdCC2SW07Dj3TMvndZ/N7+9fd3eWpe/vtt91bd47dyenS3b12ZacD1N61cehhftTdj8xWZqup+sBsYH7ta193j77/A/fVV69tPIC3QRzpTZ2+t3/bPT8/d+7RI+fOz9zj6/2CZW//Dffg9NSdHF337cW5wEw+Dw77ra+praukaT1PF29s3F9S/9WjpYOssUB0CD2CzDBpQV/DB7gf9g4X3g8kz6ma2LAMnSYy0Edabl05b/vThTvYH6fPsV3su8F6rj4wG5gLxH/8/k/8Z1OgA9Ztxzqn2Nu/4R6fnbuP790IoL21dO586R72ONjJYF3CqwA7AB6i1PUGV0S4kFXXxnWuAzAsW65paKwj+2ARJzbrlO+jzJC2E/3qoCltPyWYehgvj93Vwt+8rxTpADX6wKcVeaG/yHqg7NlUTnQTHSCzD1uaDIOu+cBqPjAbmEvH9wn0TRxp7/p99zHBG3B/fqu/yEUGdkDQR0w0eG+ke7Fc3ffArGGwiY65snOHeQLdIuoGdKWveGVC2yfYPtx2YDmSLwC8ektC27OtHPujrt/OVxuUzV5mr3V8YFYwFwP0AfS2iBzpdQbfk0h8eTtZPn64jJG6Lndw+jS7beaT0zcTGVyOB886UCLSAvSlPA/KIgNLtQKGmy8d+qX78loZsYUlfVyHvBISh3JvOCz9ClikjkpeWUlomXCgHShbiTZlufioKlvAw2Vuvir6xJUJluuXlY+iLmHpmPL6+9zhHPZ7cBjaD/15uVnq9W0uVkdKPZbH7pUGPSRf1/ZJvyHyZX1L+1+7UiyNx3awr/g+R2Su+iG2MZ1odoN5jMbZH7lu+25gMh/Yjg/MDubiOK8dHLoPPvzIvfveeS0MmxwMsG471sk4vne2Eszr5DRdzw22GhBSnuEt5zkocD16cGdgeHkUuQOSJeQQMRb3wRPwKIhwnUFu+gyAvyZlAKECluWtBfVwGdsjqTd7C+K0nFhwXl9nBubQIeh53d1d1C1hh4fwsKrBsmErTIRWaV8oG0DN0Ax9xROPKsyDDhG6lfOiz6Cz6CUftqfX1duF5Khyohf6BjLsuJ1B3OxsdhYfmB3MpxiZr/pjbBo4Jc1DHUD1MCuWWP13DP5FtKkfjiJYi14cZSPqlKNAqQp6kRmXbDldTyp0m3PpPLFgWV4vr2esi+GTQDQzieC6OK+Xm4G5Bp3kg515AsX6VmTl9CBbN7UvpEWYQx++zt+lbuiYfcCNVk5kInZ3Ee2IsmxPXGNfyJXLlUFZOxpwzAeG9YFZwbwPkPfhcH6Z/ey+O8YDSMUDcXX3zNdZZm8aOMPAHqMoAY/ANzcJAIAw6OO8BEYGQrBRqCeCoOlcp0EGjgzY8hoBW5cPesa62R4M6KxcahPnlXr5XNsipseH7ZryJ2lU56rt47ZyH149WriTZTE5E/n0zwCxB5+jTn0Mdq1G9GxPXUbOdTnWK5ffrg07kJt9zb6zgXmfIG9bXkd63Q9IP/Cm4V5XbpXrALSU8dCggbwCPok2lwv3YBnhJ2XuFn9fY2jxdy9bLVPLtYMFR/ckk1YBYtmY7gd8itx9nuJp9qBzhCTSyiX8imxZ0o6yGT4JRJX+aF8p10fiUU7QEe1Ll821TnLelD+nR2WZPXkuIerBAC/rWbxRPLAWnhHABM2vDtDzCFyvlG36sN04X9115NHp7I/IY8dm25t9zD59+sBsYD66/5n7J9rxP/N+/5YmDqAHTznnZXBE1nAWGXwBML6GMhzFQRbyBzjEh8wguzJpqAA3XXaXenmp1kOoMgmJ9aT3qlNZGnYMFw0z1l8/AAdbwg4ni0X58BzAj/Z6/Yul8Vx+liW2W+sBuOJFN7p9IjvXh3Jdf7SNoau0A23CNZ5csBy2p1xvK6f9kWXZ92ofmU3MJn37wGxg3qdhEHm3Hfusc1VZfvmYQNhWXg/ObfnnnJ5bep9Ke3OgxqRrl20Q/+JJzy51sboNlJfRBwzmmchmCo6QW5au01tHqnX55ng9RJTxnvAqdpujPYZok0TlvIoyRB0m0wBtPtDsAwbzicK8q2NLxCRLqpc5auJldrFF3dJyV5tavuZBxexj9jEf2L4PGMxnDnP7UW3/R2U2N5ubD5gPbNsHDOYG88oDVNt2QqvPBj7zAfMB84HNfMBgbjA3mJsPmA+YD5gPTNwHDOYT70CbzW42mzX7mf3MB8wH5uADBnODuc3IzQfMB8wHzAcm7gMG84l34BxmlNYGi4zMB8wHzAc28wGDucHcZuTmA+YD5gPmAxP3AYN5pgPb3vyG9LnOJMP/suN7wufazr7axa86feuO7KW+e9tZH24W5fTlGybH+mFbPjAbmI/t3ezSgXv7t93z83P38b0bvc96+U1mDBO8c3uTN3LNFQSwWWmjFV6H2/SD9G9AK2SNxXZD6BFkxnfn172Ah185i934YD+WUUnjrVnVhIj7jsvZ2+cMlvCty36cDczHuGuaO1+658uBYE5bXgLml/ktb/xDztkDgGEbybU+3hcD/3kAACAASURBVAY3hvfe59rMNtn0ex00pe08cfTQ5R3cxE9PsQudbJYT3+Eu9sd75ZvLhd3r0Fe+XCFT2mXvhTegb+rfcyg/G5hLZ/QJ9L469+FAMJfBtRzcip28GFR96T9FORpsiOqGss/cYZ5At4ieBdAPis1VeGVC+0uwfbjtwHIkX+in/C2JpJzfppbfr59uTcu/BV2/nRvoL4sPzArm0ml9AB33xNuOXZykC8wPTp+6i4uLyufJ6Zu1y/M8gGl4sV7loHi0KLdIlUkAymBCIGX8oKy27kS+B4chqkoiqdO45IroS+TU1ZmkHcq95fjeeBnosfzNOgVZsR6k1dWh8/utSF+PESDbhr9XylHkV1eXlBeQQ2+xwc1XpV0MnmA3yaO3Xw1LzpSXoFVrd58n1ikTlIruqg+j3WO5rv2FNvp6Ev3ilrSh/tiOxK4cmVMkHnRKodxYTt0S4QkU/xZYhn03kF8mH5gdzKXzXjs4dB98+JF7973zWhg2dXIbxJHeJANpXWCOvKsceTDDwA+oeHDgHq7fY/zUYb9yvpfKkRJkVAftMOBWB//TcmVA9Pay1HJqtk7oUyzFAuJp3gCGEqLJHt9hmRYAS8sVEaBaqeB25mwMWZgorNIeyZv0RQV4tKxc6FVOiCivr5PO0R+p3a+7u4tjd3X/ivfr1OYpGHmisEn7QtnQHwzNoB/6Sequwhz3x7EiUjkvJnBIR9/ofH6S2QJz+AFk2NFAftl8YHYwn2JkvqrT6cENA78eFEVuGIzjUmbIC+hRdMUg4e8KjF6mirBCPREmXevM60c6UbTOExWBbnMdUZc6feU6PjnYs02b6hIZtTDP2YmuMXC9ni12h77S/7AHYM/6VmRRnZDB+ZvaF9IizOFjfJ2/Q773UfUQm9eL+lQmNXcX0TclPVfO908DzKUc9wF0sGP0cbPF/G0xK5j3AfK+nb5LZL7OMjsPXjwwa/2bBmrJCzkyiCIyZcjkZNfDrzpJkDqCjLq0CO+QN57n6kH7mtqlddZ5IQPHXD3NOstkIUIINvT6M5BzEKVrbOdK2dwkysuOKyJcvtLmNj28/Lo+ie1jO3jQFlC9erRwJ0U0rmEr9ugSKetJQF053T+6rawX+tSO84eX9XHax7OBeZ8gxzJ627GLM3WBeRc5Ok8C38zAj/waZDw4Sx4PhOXCPSA4NUHClymWygF/f40h5dMj7LjOqj4R3lE2QyYuU0v6wQJLu7qcBlBazg/4KlIUSMQoP0JylfYEnWLZ1HaiY9QDEEqX2aOdgo5oX7q6oHWS86b8OT3W6a+ynsUb5XMWsiogsqR+f0uHn16nSYSUbfrUTYJ0GditXBUgX4N+3DZd3s6b+8HsMw/7zAbmY/yfufxItglzLL36AbYAVxWeEXqiHwZKjqRSEFShEsoFUKFOLPfGtAipdWHuZRXRKOopB/SGCYOUy4KGlni9jWjpNtip5QGx5N59bF8TlIItg1z9ABzrKfqcLBblw3PoF7Q32DX0BWzB+VmWf+iv4UE83/bKQ3qxPdxfIlc+PmomaOO6PsoECfrxUdqBNuE6A7ipnNSR2jG9Py99zbK0TnY+D1hZPzb342xg3mdHt0XkSO+zzlVl+aVHgtGq5S1/8w9jKPv4fusAxaHq30RuDrhYZdhE7qZlZaLBk55N5Vn53fw2zO6b2d1g3rIUOFYHQyRpEclmP4Ah+zdEojGKtD7rv6/4VsOQfWmy++87s2m/NjWYTxTm9kPo94cwlD15eViWl23yNY1+G8ofTK71/1A+YDA3mDc+pDSU45lcG9TMB8wHzAf68wGDucHcYG4+YD5gPmA+MHEfMJhPvANtZtvfzNZsabY0HzAfmKoPGMwN5jYjNx8wHzAfMB+YuA8YzCfegVOdRZreFgGZD5gPmA/05wMGc4O5zcjNB8wHzAfMBybuAwbziXegzWz7m9maLc2W5gPmA1P1AYN5BuZ4w1vbcaqdbnrXD1j8ytG37sje5PE1p7uyW/iv+u712FX7rd56fzXbmG3gA7OB+djezb53a+nco0fhc37mHl8Pe1DD8Jse9dvE+P3gm8qeQnm0H+/55nfLb6K/f6NY8ZrcsUB0CD30y2zqXmjDr3D175Yv3k8vNmYZlTR6R7tO82Uzm/XY29wMTJv8di972dnAfEy7pu3t33bPz+674/0AcA/286V7WJz34XT63eyXCeYADL+PW6718Xa1MdgRqwPcvj58BjLqoCltr2yYQ++R9z5XbNCCyRR09GlFXp9WWy5sFiP1PFjE3eagm+gAmbhmR4O8+UC7D8wG5tLZfQK9T+fxcO85OpcBmeE1Bgj1abM6WRoidfnWvT4GOw4J8wS6RfQMsApEeWVC2zDYPiz3sxzJF3TO3wrgciwzZ2vt15zfvrcP6Gajy2ujWcFcHLkPoLfdK0d61x9OW2R+cPrUXVxcVD5PTt+sfcJUD3o8MJaD51HcjhLgL9MO5X5w2JpTBnEZnLFkjbzSvpA/bg2KtE3lpBEgtlkN26p+7+SP3TeXadQGeLzy+sK17dSldU7rKvZBz9hGbAgbSJmbDduI6u1Mw5IzbapC+3pHOIf2QX9eppZ6fT8Uy8+lHstj90qDHpKva/ukP6WNvp5Ev8Im12SbUvke28E+7vsAkbnaUzy2sXo7icuxPPZZXNd+jet2vLyQsr7v1vezg7l0/GsHh+6DDz9y7753XgvDJgcBrNuOTTKQtnf9vvv4/Nw9v1Ud5JBnnaMeCPkcMMN95ACNIqIqYFECBdFZcp84DOYlsJN9vAsYrCwnA2eAYT8uvR7g1oSCRQkhdV3bDm3HpEPSGSZIz9lG8iZ2rAAvLgEDXqUdKa+vk87LvARJf21x7K5ye5U9BLpVWWFCsE77QttD3zI0g37oc+mLKswx8Uh1InsUfoR00TvqHvPhuhzZ1rgueqFvcM2O3QZzs9PlttPsYD6myPz43plzPS+vyw82N+DxwJiHMMM8LodW81KURtE6IkU5CkiayomOnI6oGuAK6YjGJRqM3zEgJeUpWszJQhkvNwN7ls9yox7RHokdGcg5uXStW2RendBJX8K2iLBZX69jmx5kv6b2hbQIc4CXr/N32NX7W+apfumLUvflsbu7iHaUsnXlIJdtjWtyrLvOeez75QaX9X+1/2cF8z5A3peTPFyeO7e83WllYJ1ldj3g8Xn7gB4H3WreFOaIPLVdmspJXk7PATgAK+ih4YW6BAYycfBQwMqBB3vUH3lxbK8rti/oKROJKC+xYxtEN4A5Il1E2DwZ0PZI0qjOss0e5rBlffvY5mzTq0cLd1JE495+ha1FvtijS6Qc+jtG9F3Ksa3RFtYL1+xYHbjNJmYT7QMv3Dn+prtz9A13+Id/5PavBAO9+OKLnSCkhe3yvE+Qty2vI72uvWFpvd+n13VdAB2u88DIIJV0HsSraXrwj+chb7pEerDAcmzMF+qoP4ccgMvnJyhpeKFNHmLLhXtAsJU0P+CrSFEgFFcMMkv6/KQ1lWXbiOzEjgzz4rZCjGbDagImOwG4cVIQdIStMisP1P7Ypnz+BOaFHvW21P2QTlYAS9gcKy1yXb6jPaIT1yvnTZ86u3Utg3yiB7cN1+3YbH+zj9knwFyAfvxNd3jrjv/BThHmY/qfefIfc/zX/NGjXu+b60EvGUxV9MrAWgXmMkCEAT0+GBZhpqHR5TzKwZKyr4OWifWgJO1iwCBd4I0lXg8hiiYxeUB6WpfWM4VdYkeCubaFfgBO0gFEqfdksXAnNffAvayizdCR87MsaftaD8AlzznESYbIrrOppPFH2xi6ig/wZMC39+h6WbapHMtnW+O69mtct2PaN2YPs4f2gQTmd46+OVmY64Ztco7Iu+24SR2blpUBs8vy56b17Lp8bsDftU6o3/cB/Z8a16dwzAE3N2nadlukvzFh3HbdVp8Bcso+kML82GA+lc5E9DnnJclVlnmH7rcQicZ7wpfB/kPbVMuXqJxXUXS6nRtszQfqfcBgrpYWzVnqnWWbtpEITZZvxxSl6VsOc55IbbOvra5x/OasH6bdDwZzg3l5r9N+zNP+MVv/Wf+ZD1xeHzCYG8wN5uYD5gPmA+YDE/cBg/nEO9Bm4pd3Jm59b31vPmA+AB944ehf3/d/S/P/N7cH4Gx2apMb8wHzAfMB84HJ+cALv/jlrwzm5riTc1zMRu1okYn5gPmA+cDLzmBuIDeQmw+YD5gPmA9M3Ade+M/v/1eLzCfeiTYrtcjEfMB8wHzgcvvAC+89+oHBXMG87c1vSLcfz/x+PPya0rfuyJ7v6atQd9Hn4f/tu9djF223Ouf3G7M+HaZPX3jwJ9+eBczH9G52cda9/dvu+fm5c/Ju9vP+N13RbyAb82tPh/jxov14X3hfr7b1byHDDm3+3ey7h+gQMNcvwNHvV0ef8Wtf/fvoi3e+ex/39gkv96mk0bvzu6bZG+CGGeTRl3act31n89e0Ue2atn/DPT6LAF9lO9SuPzj9bvbLBHMAht8OJ9f6eCPbGOyI1QFuX1e/6JKvDprSdn6dqp8w0bvnvc+Vm8fIhjXxPeo+jXemaypXkya6iw5DtbuLbSzPvIE35/6dDcylk/oEep+d7ndRO7vvjvev9PaQiQzIDK8xQKhPm9XJQkQ+1IA/BjsOCfMEukX0LAB/UECUVyZ0HwTbh5UKliP5gs75VQwu1yRT0rRf6/x2brA1H8j7wKxgLp3cB9BxT7zt2NWpJDL/+N6NWpAfnD51FxcXlc+T0zdry+hBjyFUDp5HcZtQgL9MO5T7wfH95zI4Y8kaeaV9IX/cuhRpm8pJI0Ds9x2ive+d/LH75jK/J/krry+yW6JyX2id07qKLVAzthEbwgZS5uarYqPq5iqSR2+BGpatKS9tnxrhHNqH3cn0UrdMUCq6r7sFaqZ9YiNpo68n0a+wyTXUH9uR2FV26kNkrvZjj22sTlg9+MmOdTLluvZrzmvf84O42cXsIj4wO5hLo147OHQffPiRe/e981oYNv0A2iCO9CYZe9fvu4+Le+bPb1UHuKayXdIY3pKfzwEE3Efme65lGpZEEZ0l94nDYB7yxmiLB+zV5WTgDDAUe3sDFNIeHfmVEFIQ0baCXph0lLLKugqgJu2NbUzsWAFeXAKGLVIwRwgy3Mu8BDR/bXHsrharNQw85MfqQyor6L9O+4Jtgo4MzVAf+lwmVrEdsC8mHqlOZI/Cj5BeVw7Xfb8U99y5jOgFv+W89t2AZT7Q7AOzg/lYI3PX4zJ7bsBLILQfIy0/aHpYFsujlTSdN55ztI6IVY4CkiroY7lQZzzXYI46FVFiAXMe1Fk+Qygni3/kuXSGI8uNenSAeWYSwXUxcL3cZCKAlYfqpE76ErbFZIb1rcjK6UH2a2of21Hqhb35On+HXb2/ZZ7ql/aXui+P3d1FtKOUrSvXlsa+DB3s2DyQm33MPinMj6a9n3kfIB/iRxGebD9zj69XB3Opb51ldj3g8Xn7gB4H3WreZgjDPk3lJA+nM/RieQEcJhh52AkMZOLgoYBIWk1GIA/H9rpi+4KeUQ85T+zIQM5BlK6tCnNEuoiwufx6MIct69sX5IZ8bNOrRwt3UkTj3n6FrWGPLpFy6O8Y0Ysd68o1pbFe6FM7GqjMB9p9IIH54a07fln6xRdfXGt5epcG7xPkWEZvO9a11y+xL2+XNjy+d+b6jMylXoAOOiQQUsDjQZwhK2WbzkNaXEqV/AcLLMdqaNSfQw7A5etlEFJkifb4PALT5cI9KKCPND/gq0hRIBRXDDJL+rit0GAbkZ/YkWHuy0VbALjpMnucJAUdYavqZEVPOpryp6AXO6/fPl/P4o3igbXwjAAmTBJloz2l/enWAOyfO9bZTefltug0ORf92E9yeexa+8BuNrp8NgowP/qGO/zDP3L7V4IBpgjzsf3P3ANc/mM+0P/M9aCXDKYNwGqCtwwAlXQPtPhgWLo0G+FVKVfRIUCoXJYlSACMkM0DkbSLAYM0gSFkeQhRNInJA9KxfJ1tH92CkPTEjgRzX5ZsoR+Ak3TpE9R5sliUD8/l2odrufwsS9r+SsODeL7tiS31pCpdeUAbczaVNP5oG0NX6aeK/kfXy7KN5VS/sUy022Ce9gP3iX0329T5wAu5hCnCPNeOda+1ReRIX1d+H+V8ZEcA60PmGGUwXMemn+8D+s/02PRr0icH3C6Ab5LZR5r0d25S14dsk2EgnLMPGMxVNDKVzkb0Oecopm1Jdpt9FSLReE/4Mth/m/aVuvwtAFpl2Hb9Vp/Bfso+YDCfKMyn7HRddJcITZZgxxSlhclFvOUw54lUlz6yPAY/84Hx+IDB3GBe3uu0H+Z4fpjWF9YX5gPmA6v4wKhh/mef/2fuf//u33Hu059w7lOfdO5TcrSP2cB8wHxg5D7w6U+4//O7v+P+6p9+1ibLFjBtxQdGC3MB+d8auG3yYj5gPjBpH/ik++t/8g+3MpivEsVZ3vlF/aOF+f/99O/YIDbpQWzkkZPZ1n5fW/KBv/3UJw3mFp0P7gOjhTkvIz7+3D9yN77w0uDGsNnq/Gar1qfWp7vwgW/9i3+eTJZ2oYPVebl8f7ww9/fJQ3R39aV9A7nNbM0HzAcm5QPxOR+LzG1iMfzEYrwwpyUwc4ThHcFsbDY2H+jXB3h10Wzbr23NnlV7Gswz0Q7e8NZ2vCwOxa/ufOuO7PEdX+O6SxuMUa/wX/Td2GfKb6TbpR8NVbfBvAqcoWxtcl92s4H52N7NDucKO6adu4/v3eh1iTD3BjJcw/uu63atgm5dj/7NXNi1zL+ffDVYjVWvru1fJV/fMMeEpUtfjhHm+kU74pu5l+3w62X9e++vxR0GtQx+kRCnVcoVm+NInfx+/m29ac5gbjBfZezYNO9sYD6mXdO4U7DhSu8wl13H6N3sGAyTga7YSYz1Wef7Ju9HH6te69ghVwawZbvn8q17zcNquSw3bWmS0xfM+2pTHTTFnxiufrJH77j37She64qJIOzbmlbujicbzMTX7/o66fci55DZZNNN0gzmBvNN/GfVsrOBuTS8T6Cvashcfr8V6tl993jZf2QuAyUiHD3g5XTZ5Nq6MB+rXpvYQpftC3xaLs7Rz13gMyaYsy7yHdHxgwKiHvQEV7RXjsFvwupP+B6hnKTRNrqhXHWHOMhlfeQa7Ir0IY4Gc4P5EH5VJ3NWMJdG9gH0tnvlSK8zqlzf27/hHp+du+e3rriHLTA/OH3qLi4uKp8np2/WLs3zYKQHqpxeAGu5BE8bWpQD5FHcVhQTBYEIl7nZsB2n3hZ0tHpltzbVe4+HLVuxkxgv54o9JKqr2HTd7Uozdg8+FOGUs6Wu3wOTI1zashU6R7kSmabb0ta16ep+ta3wjziZSe2FyUewG2wbt2cNukdIs8/6tpJ/Vnwdt3yyMM9H3HpCyjK57j6/G8wN5n36U5us2cFcGvzawaH74MOP3LvvndfCsMkwgHXbsUkGA5y/N5VZJY0Hp9xAz7Iw6GMAljQeMJGOZfswAMf74kldBEKUw3IlBvYSgGqwZZ28DsU9za3rRW3wetB52QaCib+2OHYCtartBLgRIFV4nZYrKNWyBQABJ69HtDv3a7A1pRW2g+1FtvRTaXvZp71F52SpW/qqXNpWbarsTR/T8/aSdgVQMzRDXoBdZFRhjkkTt0tkYEIpR/iLziv2SiYt3p75DXtEJvxdbDfEx2A+jF2H6Ks5yJwdzMcQme/dWjp3dt8dF4N/3zDXAxEP+jmnzKVjEI7RGINCBtp4XgvzDKy5Lv4+Kr0I3qJXCuAIKq0zQ6UWfCQ71/517S66JP3QYnvo3kVnbwOBfzEpYR19WgFJBiqgqvMGWSnMAeYwIQHMYx7WtfIQm57gqEmM2Bh6yUTm7iL6LeTKkSc6uM72xLU+jwZzg3mf/tQma1Yw7wPkbQZrS8fyunv0yFU+BHiWs84yOw9EOmpj2fK9Hiph4NPlwwAdB8WkrjZYEWS03NHoRW3w9qHzLJx8eoywm+CfpJEt0Ha2rbZPNS3e4iiBheg5J5uuIWpNo1iANII71SusMGgb5PwnVy69FvyHJ55XjxbupIjGvUy6Z+5hS+eQxeVxjf0R1+QY7FmN9mNa9OmcXJbVx3eDucG8Dz/qKmM2MO8T5G3L60jvauS+I3OpVwYjDNQ4r0Q1xdPsYZCLMJL8PEA3QUXy8uCZwEpHSUV0h6XeseoV2qAGdkCSIlTRX9sqtikPxpx9uJ+62t3nK3Qq9SB7o09j1BsADdtzPXU68zKzh1uNDXRdIu9gkW8/dAUsMTFAJC/X5Tv0lPxsM5THUfdVThfkrfgpTQ68PvQ8gZxzv0BGn0eDucG8T39qkzUbmI/1f+bSAduAudQjAzgiOD9g0mCGQRDpWCb25bL3RCPsKoMkQSYMtiGC1A/AwfnGqBegIvY4WSzKv34BPoBksE8AJWzH+SUdsgRQrzQ8IOj7hG3XYHexOcMWtuTrbFdte7QjpzPSHiyiv7A/6Db5B+CK1QnIg31KWYfxf+GJrgRQXNdHbgfky7GsQ/l1eb2YeKGMhjP6RdJz7dP5tV6bnhvMDeab+tAq5WcD81Ua3ZYXkXfbsU3OkOkyAOYG+yHr7CLb69VhAO8iq888Y9WrzzZ2ldUE4K4yuubLgZqj8q5y+s4nkyJMCvqWDXkGc4M5fGEbR4P5QE+yDt15iLSHji6a2hGgEO9RjkEn0XesejXZcptp24T5NtvVtS6J2HWk3rXsKvkM5gbzVfxl07wG84nCfNOO76s8L7PLcuYuJxfcprHqxTru6vtlh/m27G4wN5hvy9eknnHDvNgGdZsGsbrsB2g+YD7Qhw94mNsYNsh/+Pvon7nJGDfMi21QX//93zeHsBUE8wHzgcn4wJf2rziLzG1SuM0Jw2hh/v8+/Un6MfD3T9B1+84Dhn03fzAfGIsPpGPWNgd1q+tyTiJGC/OPPvsPDNrFyoQN0GMZoE0P88XVfeB//t7fm8yKgk0EpjsRGC3Mxan++2f+PgE9nenaoLL6oGI2M5uZD2zTBz7p/tfv/V0Dud0e2ooPjBrmNkuc7izR+s76znzAfMB8YHs+YDC3WeNWZo32o97ej9psbbY2H7h8PmAwz8C87c1vSLcfzHo/GP2+7bHZEf/Dlv/Nv3Xn2J2cxlfb7krXsdtsV3axetf7DZrd5me32cB8bO9mP753lu6atrzdawTMb1tj+OA91UO/qnKTwaAvMMEGaHNfr7f1bwgr3mvfl66b2EvKDqFHkJnuzJZ76Q+/krWymQ+9s72SRu9Ur6QVm8ZI3/Hb2Lb1drZN+8PKzw+GU+/T2cB8bLumDbG5Cjubf9c4gOM3nIjR4xADP9e96ndMNvqcYAAwLFOu5WC0qr68scyqZfvKP4TNWLc6aPqNXPRmMPSufe935e5qsid5fMe5Tyvy+olWbTnZuCa+Bpg3jxEdt/HedLaFfTcwz8EHZgNz6Yw+gb5p5wrMn9+q7iS1qVyUl8EY4AoDf4S55BkDkKBr32BCRM4gR119HMdgu75txnZJoFtEzxIdPyg2H+GVCS4n34Ptg6+xnJAmkE79EOW5HK7hqOWwbyOPHQ245gPNPjArmEtn9wF03BNvO9Y5197+Dff47Dwus58v3cP9erAfnD51FxcXlc+T0zdrl+Z5wGuCeYRCiKKwYxWAWC5RJ9FY2PLzwWEogzwMT10+nVhItBbKfu9k4b51Gpdyu2wTClliX2kn6sdyrB78c/2g9UNZyVuC5ShuAYo6BeRc382GLU0r2476JecYcYYVEr3vt+oHWqaWesXGFd3X3Vo10z5pPyLfVD/Rq4C0XwKP7WD7etsjMped+zj6zuwFj7JcDtdw1JMn9m3ksWPzQG72MfvMDubi1K8dHLoPPvzIvfveeS0Mm5y/DeJIb5LBaf7++dl9d9wAdM7f5TsPgBrmvMwOmFdhdlpG9lIfD7bZMjJwYxDP7sMdlluzZdUgXwcRrwfl5XxskzaYA4YAdLV9BVBxm8IDNUaUiW0J0JCLSU3ZViwtU15fJ52XefWkaXHsZL/wqo6YUBVpiayg/zrtC20IoGZoBv144lGFeegPWlb3OtF5EeXDPugzXS7aJkycdH7Rq6/nH6CDHQ12c/eB2cF8DJG5dpq9/dvu+fmZe3y9PjrXZZrO9WAHUMSIMoIJaTxg5mDI+fg79OBrUh518VHgwvlyZeUaQ7pZVgFd9TR5Tn/U5eWriNFf40lCdjISbVYL85xcusbtqrST6mdd5bv0J+wYJ0wNMKc6IYvtHoAd2xPSwrmGOfyCr/N3yPc+p/pB0rj/JEq/u4j1om364TfIxFHszRG+XOc+QD47GpDNB+p9YFYw7wPkQzhLG8zXWWbnwY4Ha60/D/JIy8GQZWTLEIxy5UvZlK/uGkOvSZYuDyhoWCEfjjmZafvikrKU4TQ5T2zLEXEOonSN2+XlctmcXYrIFhE2l9d9kKRRnWWbvXwGdoQqt4+/86Tw6tHCnRQPpXn7FasWsEeXSFlPAjykSQ501Ufdn6yXzmvn9YO52eZy22Y2MO8T5FhGbzvW/XjknvkxReHyMJzreZldBrwSAjSQa500FCQ9DJ6ZZXYsFxfg4QE8RGZYhg0RM6I6kXmwQFoaUYb60msJmIq/KGVlXTt2dw+LZWYFw6BPBJavp3iavb19a8Jc6QrbIqoM7Yo6pTZLbQB9UVbOm/LnbIb+17I0HBngZT2LN8pVFFkVEFlSv3xnnbheKdv0qZsE6TJeJkHet5vuvcs5t02Xt/PmfjD7XE77zAbmY/qfeeUBuJ5BLj9WHvD0YM0/ZgCHYSnpAJ5e3g1pBXgWcTkdy7+QHQb5+LAY5NfVx6B4RT9UVkSo0AWypC4BBK7z5MLrqZb7Ob25fevB3NdJuuoH4CQd7RSdTxYLd1I+Z5CBeTFBQfs4P8sSuFZsVkwsUJb7gwCiSAAAAQdJREFUpw3mIttHzQRQuZb7SJSOOvgofYS+xnUGcFM5bpuUZd2RxrJyetm1fH+ZXS6vXWYD8z6duC0iR3qfda4qSy+Frlq+KT8GaYZqU/7LnOb7oQMUx2ijHHA5Kt+VzjLRMN+7vFDald9NvV6DeU1EMvaOReQ5RARjMM8PpMEu8SnvIftg7P43lH6ysqEj9aHqMrl5Pze7TNMuBvOJwnzIH5zBvP7HrG8vDDGZGrJvTXZ935ptzDZT9gGDucE8e690yk5tutugbD5gPnDZfMBgbjA3mJsPmA+YD5gPTNwHDOYT78DLNvu09lrEZT5gPmA+UPUBg7nB3Gbk5gPmA+YD5gMT94H/D9HpPgubaPZ8AAAAAElFTkSuQmCC;" vertex="1" parent="1">
          <mxGeometry x="2780" y="-199" width="499" height="185" as="geometry" />
        </mxCell>
        <mxCell id="22falqz4Or-8pj2Nucx1-24" value="获取所有的方法&lt;br&gt;Method[] methods = getClass().getMethods()" style="rounded=1;whiteSpace=wrap;html=1;" vertex="1" parent="1">
          <mxGeometry x="2300" y="300" width="370" height="40" as="geometry" />
        </mxCell>
        <mxCell id="22falqz4Or-8pj2Nucx1-26" value="获取所有的方法&lt;br&gt;Method[] methods = getClass().getMethods()" style="rounded=1;whiteSpace=wrap;html=1;" vertex="1" parent="1">
          <mxGeometry x="2300" y="380" width="370" height="40" as="geometry" />
        </mxCell>
        <mxCell id="22falqz4Or-8pj2Nucx1-35" style="edgeStyle=orthogonalEdgeStyle;rounded=0;orthogonalLoop=1;jettySize=auto;html=1;exitX=1;exitY=0.5;exitDx=0;exitDy=0;entryX=0;entryY=0.5;entryDx=0;entryDy=0;" edge="1" parent="1" source="22falqz4Or-8pj2Nucx1-31" target="22falqz4Or-8pj2Nucx1-32">
          <mxGeometry relative="1" as="geometry" />
        </mxCell>
        <mxCell id="22falqz4Or-8pj2Nucx1-37" style="edgeStyle=orthogonalEdgeStyle;rounded=0;orthogonalLoop=1;jettySize=auto;html=1;exitX=1;exitY=0.5;exitDx=0;exitDy=0;entryX=0;entryY=0.5;entryDx=0;entryDy=0;" edge="1" parent="1" source="22falqz4Or-8pj2Nucx1-31" target="22falqz4Or-8pj2Nucx1-36">
          <mxGeometry relative="1" as="geometry" />
        </mxCell>
        <mxCell id="22falqz4Or-8pj2Nucx1-31" value="&amp;nbsp;for (Method method : methods)" style="rounded=1;whiteSpace=wrap;html=1;" vertex="1" parent="1">
          <mxGeometry x="2300" y="470" width="370" height="40" as="geometry" />
        </mxCell>
        <mxCell id="22falqz4Or-8pj2Nucx1-39" style="edgeStyle=orthogonalEdgeStyle;rounded=0;orthogonalLoop=1;jettySize=auto;html=1;exitX=1;exitY=0.5;exitDx=0;exitDy=0;entryX=0;entryY=0.5;entryDx=0;entryDy=0;" edge="1" parent="1" source="22falqz4Or-8pj2Nucx1-32" target="22falqz4Or-8pj2Nucx1-38">
          <mxGeometry relative="1" as="geometry" />
        </mxCell>
        <mxCell id="22falqz4Or-8pj2Nucx1-77" style="edgeStyle=orthogonalEdgeStyle;rounded=0;orthogonalLoop=1;jettySize=auto;html=1;exitX=1;exitY=0.5;exitDx=0;exitDy=0;fontColor=#FF6666;entryX=0;entryY=0.5;entryDx=0;entryDy=0;" edge="1" parent="1" source="22falqz4Or-8pj2Nucx1-32" target="22falqz4Or-8pj2Nucx1-76">
          <mxGeometry relative="1" as="geometry">
            <mxPoint x="3130" y="275" as="targetPoint" />
          </mxGeometry>
        </mxCell>
        <mxCell id="22falqz4Or-8pj2Nucx1-32" value="if (MethodUtils.isSetter(method))" style="rhombus;whiteSpace=wrap;html=1;" vertex="1" parent="1">
          <mxGeometry x="2860" y="320" width="230" height="80" as="geometry" />
        </mxCell>
        <mxCell id="22falqz4Or-8pj2Nucx1-36" value="if (isParametersSetter(method))" style="rhombus;whiteSpace=wrap;html=1;" vertex="1" parent="1">
          <mxGeometry x="2860" y="470" width="230" height="80" as="geometry" />
        </mxCell>
        <mxCell id="22falqz4Or-8pj2Nucx1-38" value="通过配置的优先级，调用set方法进行赋值&lt;br&gt;method.invoke(this, ClassUtils.convertPrimitive(method.getParameterTypes()[0], value));" style="rounded=1;whiteSpace=wrap;html=1;" vertex="1" parent="1">
          <mxGeometry x="3150" y="420" width="530" height="50" as="geometry" />
        </mxCell>
        <mxCell id="22falqz4Or-8pj2Nucx1-40" value="&lt;div&gt;&amp;nbsp; &amp;nbsp; &amp;nbsp; &amp;nbsp; // JVM环境变量&lt;/div&gt;&lt;div&gt;&amp;nbsp; &amp;nbsp; &amp;nbsp; &amp;nbsp; compositeConfiguration.addConfiguration(this.&lt;font color=&quot;#ff6666&quot;&gt;getSystemConfig&lt;/font&gt;(prefix, id));&lt;/div&gt;&lt;div&gt;&amp;nbsp; &amp;nbsp; &amp;nbsp; &amp;nbsp; // 操作系统环境变量&lt;/div&gt;&lt;div&gt;&amp;nbsp; &amp;nbsp; &amp;nbsp; &amp;nbsp; compositeConfiguration.addConfiguration(this.&lt;font color=&quot;#ff6666&quot;&gt;getEnvironmentConfig&lt;/font&gt;(prefix, id));&lt;/div&gt;&lt;div&gt;&amp;nbsp; &amp;nbsp; &amp;nbsp; &amp;nbsp; // 配置中心APP配置&lt;/div&gt;&lt;div&gt;&amp;nbsp; &amp;nbsp; &amp;nbsp; &amp;nbsp; compositeConfiguration.addConfiguration(this.&lt;font color=&quot;#ff6666&quot;&gt;getAppExternalConfig&lt;/font&gt;(prefix, id));&lt;/div&gt;&lt;div&gt;&amp;nbsp; &amp;nbsp; &amp;nbsp; &amp;nbsp; // 配置中心Global配置&lt;/div&gt;&lt;div&gt;&amp;nbsp; &amp;nbsp; &amp;nbsp; &amp;nbsp; compositeConfiguration.addConfiguration(this.&lt;font color=&quot;#ff6666&quot;&gt;getExternalConfig&lt;/font&gt;(prefix, id));&lt;/div&gt;&lt;div&gt;&amp;nbsp; &amp;nbsp; &amp;nbsp; &amp;nbsp; // dubbo.properties中的配置&lt;/div&gt;&lt;div&gt;&amp;nbsp; &amp;nbsp; &amp;nbsp; &amp;nbsp; compositeConfiguration.addConfiguration(this.&lt;font color=&quot;#ff6666&quot;&gt;getPropertiesConfig&lt;/font&gt;(prefix, id));&lt;/div&gt;" style="rounded=1;whiteSpace=wrap;html=1;align=left;" vertex="1" parent="1">
          <mxGeometry x="3060" width="530" height="150" as="geometry" />
        </mxCell>
        <mxCell id="22falqz4Or-8pj2Nucx1-45" style="edgeStyle=orthogonalEdgeStyle;rounded=0;orthogonalLoop=1;jettySize=auto;html=1;exitX=1;exitY=0.5;exitDx=0;exitDy=0;entryX=0;entryY=0.5;entryDx=0;entryDy=0;fontColor=#FF6666;" edge="1" parent="1" source="22falqz4Or-8pj2Nucx1-42" target="22falqz4Or-8pj2Nucx1-44">
          <mxGeometry relative="1" as="geometry" />
        </mxCell>
        <mxCell id="22falqz4Or-8pj2Nucx1-50" style="edgeStyle=orthogonalEdgeStyle;rounded=0;orthogonalLoop=1;jettySize=auto;html=1;exitX=1;exitY=0.5;exitDx=0;exitDy=0;entryX=0;entryY=0.5;entryDx=0;entryDy=0;fontColor=#FF6666;" edge="1" parent="1" source="22falqz4Or-8pj2Nucx1-44" target="22falqz4Or-8pj2Nucx1-49">
          <mxGeometry relative="1" as="geometry" />
        </mxCell>
        <mxCell id="22falqz4Or-8pj2Nucx1-53" style="edgeStyle=orthogonalEdgeStyle;rounded=0;orthogonalLoop=1;jettySize=auto;html=1;exitX=1;exitY=0.5;exitDx=0;exitDy=0;entryX=0;entryY=0.5;entryDx=0;entryDy=0;fontColor=#FF6666;" edge="1" parent="1" source="22falqz4Or-8pj2Nucx1-44" target="22falqz4Or-8pj2Nucx1-52">
          <mxGeometry relative="1" as="geometry" />
        </mxCell>
        <mxCell id="22falqz4Or-8pj2Nucx1-63" style="edgeStyle=orthogonalEdgeStyle;rounded=0;orthogonalLoop=1;jettySize=auto;html=1;exitX=1;exitY=0.5;exitDx=0;exitDy=0;entryX=0;entryY=0.5;entryDx=0;entryDy=0;fontColor=#FF6666;" edge="1" parent="1" source="22falqz4Or-8pj2Nucx1-42" target="22falqz4Or-8pj2Nucx1-61">
          <mxGeometry relative="1" as="geometry" />
        </mxCell>
        <mxCell id="22falqz4Or-8pj2Nucx1-64" style="edgeStyle=orthogonalEdgeStyle;rounded=0;orthogonalLoop=1;jettySize=auto;html=1;exitX=1;exitY=0.5;exitDx=0;exitDy=0;fontColor=#FF6666;entryX=0;entryY=0.5;entryDx=0;entryDy=0;" edge="1" parent="1" source="22falqz4Or-8pj2Nucx1-42" target="22falqz4Or-8pj2Nucx1-62">
          <mxGeometry relative="1" as="geometry" />
        </mxCell>
        <mxCell id="22falqz4Or-8pj2Nucx1-67" style="edgeStyle=orthogonalEdgeStyle;rounded=0;orthogonalLoop=1;jettySize=auto;html=1;exitX=1;exitY=0.5;exitDx=0;exitDy=0;entryX=0;entryY=0.5;entryDx=0;entryDy=0;fontColor=#FF6666;" edge="1" parent="1" source="22falqz4Or-8pj2Nucx1-42" target="22falqz4Or-8pj2Nucx1-65">
          <mxGeometry relative="1" as="geometry" />
        </mxCell>
        <mxCell id="22falqz4Or-8pj2Nucx1-68" style="edgeStyle=orthogonalEdgeStyle;rounded=0;orthogonalLoop=1;jettySize=auto;html=1;exitX=1;exitY=0.5;exitDx=0;exitDy=0;entryX=0;entryY=0.5;entryDx=0;entryDy=0;fontColor=#FF6666;" edge="1" parent="1" source="22falqz4Or-8pj2Nucx1-42" target="22falqz4Or-8pj2Nucx1-66">
          <mxGeometry relative="1" as="geometry" />
        </mxCell>
        <mxCell id="22falqz4Or-8pj2Nucx1-42" value="prepareEnvironment();" style="rounded=1;whiteSpace=wrap;html=1;" vertex="1" parent="1">
          <mxGeometry x="1780" y="680" width="280" height="40" as="geometry" />
        </mxCell>
        <mxCell id="22falqz4Or-8pj2Nucx1-48" style="edgeStyle=orthogonalEdgeStyle;rounded=0;orthogonalLoop=1;jettySize=auto;html=1;exitX=1;exitY=0.5;exitDx=0;exitDy=0;fontColor=#FF6666;entryX=0;entryY=0.5;entryDx=0;entryDy=0;" edge="1" parent="1" source="22falqz4Or-8pj2Nucx1-44" target="22falqz4Or-8pj2Nucx1-46">
          <mxGeometry relative="1" as="geometry" />
        </mxCell>
        <mxCell id="22falqz4Or-8pj2Nucx1-54" style="edgeStyle=orthogonalEdgeStyle;rounded=0;orthogonalLoop=1;jettySize=auto;html=1;exitX=1;exitY=0.5;exitDx=0;exitDy=0;entryX=0;entryY=0.5;entryDx=0;entryDy=0;fontColor=#FF6666;" edge="1" parent="1" source="22falqz4Or-8pj2Nucx1-44" target="22falqz4Or-8pj2Nucx1-51">
          <mxGeometry relative="1" as="geometry" />
        </mxCell>
        <mxCell id="22falqz4Or-8pj2Nucx1-44" value="连接zookeeper，并创建zkCli实例&lt;br&gt;DynamicConfiguration dynamicConfiguration = getDynamicConfiguration(configCenter.toUrl());" style="rounded=1;whiteSpace=wrap;html=1;" vertex="1" parent="1">
          <mxGeometry x="2160" y="672.5" width="375" height="55" as="geometry" />
        </mxCell>
        <mxCell id="22falqz4Or-8pj2Nucx1-46" value="&lt;div&gt;DynamicConfigurationFactory factory = ExtensionLoader&lt;span&gt;.getExtensionLoader(DynamicConfigurationFactory.class)&lt;/span&gt;&lt;span&gt;.getExtension(url.getProtocol()); Dubbo 的 spi 机制：通过协议名称作为 key，去指定路径下去找对应的 value&lt;/span&gt;&lt;/div&gt;假设url.getProtocol()为zookeeper，那么就会创建ZookeeperDynamicConfigurationFactory实例" style="rounded=1;whiteSpace=wrap;html=1;" vertex="1" parent="1">
          <mxGeometry x="2620" y="562.5" width="600" height="100" as="geometry" />
        </mxCell>
        <mxCell id="22falqz4Or-8pj2Nucx1-56" value="如果配置中心采用zookeeper" style="edgeStyle=orthogonalEdgeStyle;rounded=0;orthogonalLoop=1;jettySize=auto;html=1;exitX=1;exitY=0.5;exitDx=0;exitDy=0;fontColor=#FF6666;" edge="1" parent="1" source="22falqz4Or-8pj2Nucx1-49" target="22falqz4Or-8pj2Nucx1-55">
          <mxGeometry relative="1" as="geometry" />
        </mxCell>
        <mxCell id="22falqz4Or-8pj2Nucx1-49" value="DynamicConfiguration configuration = factory.getDynamicConfiguration(url);" style="rounded=1;whiteSpace=wrap;html=1;" vertex="1" parent="1">
          <mxGeometry x="2620" y="690" width="425" height="50" as="geometry" />
        </mxCell>
        <mxCell id="22falqz4Or-8pj2Nucx1-51" value="存储到全局的环境变量中Environment.getInstance().setDynamicConfiguration(configuration);" style="rounded=1;whiteSpace=wrap;html=1;" vertex="1" parent="1">
          <mxGeometry x="2620" y="780" width="425" height="50" as="geometry" />
        </mxCell>
        <mxCell id="22falqz4Or-8pj2Nucx1-52" value="返回实例对象&lt;br&gt;return configuration;" style="rounded=1;whiteSpace=wrap;html=1;" vertex="1" parent="1">
          <mxGeometry x="2620" y="850" width="185" height="40" as="geometry" />
        </mxCell>
        <mxCell id="22falqz4Or-8pj2Nucx1-58" style="edgeStyle=orthogonalEdgeStyle;rounded=0;orthogonalLoop=1;jettySize=auto;html=1;exitX=1;exitY=0.5;exitDx=0;exitDy=0;fontColor=#FF6666;" edge="1" parent="1" source="22falqz4Or-8pj2Nucx1-55" target="22falqz4Or-8pj2Nucx1-57">
          <mxGeometry relative="1" as="geometry" />
        </mxCell>
        <mxCell id="22falqz4Or-8pj2Nucx1-55" value="dynamicConfiguration = createDynamicConfiguration(url);" style="rounded=1;whiteSpace=wrap;html=1;" vertex="1" parent="1">
          <mxGeometry x="3297" y="690" width="343" height="50" as="geometry" />
        </mxCell>
        <mxCell id="22falqz4Or-8pj2Nucx1-60" style="edgeStyle=orthogonalEdgeStyle;rounded=0;orthogonalLoop=1;jettySize=auto;html=1;exitX=1;exitY=0.5;exitDx=0;exitDy=0;fontColor=#FF6666;" edge="1" parent="1" source="22falqz4Or-8pj2Nucx1-57" target="22falqz4Or-8pj2Nucx1-59">
          <mxGeometry relative="1" as="geometry" />
        </mxCell>
        <mxCell id="22falqz4Or-8pj2Nucx1-57" value="return new ZookeeperDynamicConfiguration(url, zookeeperTransporter);" style="rounded=1;whiteSpace=wrap;html=1;" vertex="1" parent="1">
          <mxGeometry x="3730" y="690" width="343" height="50" as="geometry" />
        </mxCell>
        <mxCell id="22falqz4Or-8pj2Nucx1-59" value="连接zookeeper&lt;br&gt;zkClient = zookeeperTransporter.connect(url);" style="rounded=1;whiteSpace=wrap;html=1;fillColor=#ffe6cc;strokeColor=#d79b00;" vertex="1" parent="1">
          <mxGeometry x="4140" y="690" width="343" height="50" as="geometry" />
        </mxCell>
        <mxCell id="22falqz4Or-8pj2Nucx1-69" style="edgeStyle=orthogonalEdgeStyle;rounded=0;orthogonalLoop=1;jettySize=auto;html=1;exitX=1;exitY=0.5;exitDx=0;exitDy=0;entryX=1;entryY=0.5;entryDx=0;entryDy=0;fontColor=#FF6666;dashed=1;curved=1;" edge="1" parent="1" source="22falqz4Or-8pj2Nucx1-61" target="22falqz4Or-8pj2Nucx1-65">
          <mxGeometry relative="1" as="geometry" />
        </mxCell>
        <mxCell id="22falqz4Or-8pj2Nucx1-61" value="&lt;div&gt;获取全局配置：如果是zookeeper，获取的就是/dubbo/config/dubbo/dubbo.properties节点中的内容&lt;/div&gt;&lt;div&gt;String configContent = dynamicConfiguration.getProperties(configCenter.getConfigFile(), configCenter.getGroup());&lt;/div&gt;" style="rounded=1;whiteSpace=wrap;html=1;" vertex="1" parent="1">
          <mxGeometry x="2150" y="940" width="630" height="65" as="geometry" />
        </mxCell>
        <mxCell id="22falqz4Or-8pj2Nucx1-70" style="edgeStyle=orthogonalEdgeStyle;curved=1;rounded=0;orthogonalLoop=1;jettySize=auto;html=1;exitX=1;exitY=0.5;exitDx=0;exitDy=0;entryX=1;entryY=0.5;entryDx=0;entryDy=0;dashed=1;fontColor=#FF6666;" edge="1" parent="1" source="22falqz4Or-8pj2Nucx1-62" target="22falqz4Or-8pj2Nucx1-66">
          <mxGeometry relative="1" as="geometry" />
        </mxCell>
        <mxCell id="22falqz4Or-8pj2Nucx1-62" value="&lt;div&gt;获取当前应用的配置：获取的就是/dubbo/config/dubbo-demo-consumer-application/dubbo.properties节点中的内容&lt;/div&gt;&lt;div&gt;&amp;nbsp; &amp;nbsp; &amp;nbsp; &amp;nbsp; &amp;nbsp; &amp;nbsp; &amp;nbsp; &amp;nbsp; appConfigContent = dynamicConfiguration.getProperties&lt;span&gt;(StringUtils.isNotEmpty(configCenter.getAppConfigFile()) ? configCenter.getAppConfigFile() : configCenter.getConfigFile(),&lt;/span&gt;&lt;span&gt;appGroup&lt;/span&gt;&lt;span&gt;);&lt;/span&gt;&lt;/div&gt;" style="rounded=1;whiteSpace=wrap;html=1;" vertex="1" parent="1">
          <mxGeometry x="2150" y="1040" width="625" height="65" as="geometry" />
        </mxCell>
        <mxCell id="22falqz4Or-8pj2Nucx1-65" value="存入 ExternalConfigurationMap 全局配置项&lt;br&gt;Environment.getInstance().updateExternalConfigurationMap(parseProperties(configContent));" style="rounded=1;whiteSpace=wrap;html=1;" vertex="1" parent="1">
          <mxGeometry x="2150" y="1140" width="635" height="50" as="geometry" />
        </mxCell>
        <mxCell id="22falqz4Or-8pj2Nucx1-66" value="&lt;div&gt;存入 AppExternalConfigurationMap 应用配置项&lt;/div&gt;&lt;div&gt;&amp;nbsp; &amp;nbsp; &amp;nbsp; &amp;nbsp; &amp;nbsp; &amp;nbsp; &amp;nbsp; &amp;nbsp; Environment.getInstance().updateAppExternalConfigurationMap(parseProperties(appConfigContent));&lt;/div&gt;" style="rounded=1;whiteSpace=wrap;html=1;" vertex="1" parent="1">
          <mxGeometry x="2150" y="1230" width="635" height="50" as="geometry" />
        </mxCell>
        <mxCell id="22falqz4Or-8pj2Nucx1-75" style="edgeStyle=orthogonalEdgeStyle;rounded=0;orthogonalLoop=1;jettySize=auto;html=1;exitX=1;exitY=0.5;exitDx=0;exitDy=0;fontColor=#FF6666;" edge="1" parent="1" source="22falqz4Or-8pj2Nucx1-72" target="22falqz4Or-8pj2Nucx1-74">
          <mxGeometry relative="1" as="geometry" />
        </mxCell>
        <mxCell id="22falqz4Or-8pj2Nucx1-72" value="prepareEnvironment();" style="rounded=1;whiteSpace=wrap;html=1;" vertex="1" parent="1">
          <mxGeometry x="1780" y="1360" width="280" height="40" as="geometry" />
        </mxCell>
        <mxCell id="22falqz4Or-8pj2Nucx1-74" value="从配置中心取到配置数据后，刷新所有的XxConfig中的属性，除开ServiceConfig&lt;br&gt;ConfigManager.getInstance().refreshAll();" style="rounded=1;whiteSpace=wrap;html=1;" vertex="1" parent="1">
          <mxGeometry x="2150" y="1350" width="455" height="60" as="geometry" />
        </mxCell>
        <mxCell id="22falqz4Or-8pj2Nucx1-79" style="edgeStyle=orthogonalEdgeStyle;rounded=0;orthogonalLoop=1;jettySize=auto;html=1;exitX=1;exitY=0.5;exitDx=0;exitDy=0;fontColor=#FF6666;" edge="1" parent="1" source="22falqz4Or-8pj2Nucx1-76" target="22falqz4Or-8pj2Nucx1-78">
          <mxGeometry relative="1" as="geometry" />
        </mxCell>
        <mxCell id="22falqz4Or-8pj2Nucx1-76" value="获取xx配置项的value&lt;br&gt;String value = StringUtils.trim(compositeConfiguration.getString(extractPropertyName(getClass(), method)));" style="rounded=1;whiteSpace=wrap;html=1;" vertex="1" parent="1">
          <mxGeometry x="3150" y="250" width="530" height="50" as="geometry" />
        </mxCell>
        <mxCell id="22falqz4Or-8pj2Nucx1-81" style="edgeStyle=orthogonalEdgeStyle;rounded=0;orthogonalLoop=1;jettySize=auto;html=1;exitX=1;exitY=0.5;exitDx=0;exitDy=0;fontColor=#FF6666;" edge="1" parent="1" source="22falqz4Or-8pj2Nucx1-78" target="22falqz4Or-8pj2Nucx1-80">
          <mxGeometry relative="1" as="geometry" />
        </mxCell>
        <mxCell id="22falqz4Or-8pj2Nucx1-78" value="return convert(String.class, key, null);" style="rounded=1;whiteSpace=wrap;html=1;" vertex="1" parent="1">
          <mxGeometry x="3760" y="250" width="230" height="50" as="geometry" />
        </mxCell>
        <mxCell id="22falqz4Or-8pj2Nucx1-83" style="edgeStyle=orthogonalEdgeStyle;rounded=0;orthogonalLoop=1;jettySize=auto;html=1;exitX=1;exitY=0.5;exitDx=0;exitDy=0;fontColor=#FF6666;" edge="1" parent="1" source="22falqz4Or-8pj2Nucx1-80" target="22falqz4Or-8pj2Nucx1-82">
          <mxGeometry relative="1" as="geometry" />
        </mxCell>
        <mxCell id="22falqz4Or-8pj2Nucx1-80" value="Configuration.java&lt;br&gt;String value = (String) getProperty(key);" style="rounded=1;whiteSpace=wrap;html=1;" vertex="1" parent="1">
          <mxGeometry x="4040" y="250" width="230" height="50" as="geometry" />
        </mxCell>
        <mxCell id="22falqz4Or-8pj2Nucx1-85" style="edgeStyle=orthogonalEdgeStyle;rounded=0;orthogonalLoop=1;jettySize=auto;html=1;exitX=1;exitY=0.5;exitDx=0;exitDy=0;fontColor=#FF6666;" edge="1" parent="1" source="22falqz4Or-8pj2Nucx1-82" target="22falqz4Or-8pj2Nucx1-84">
          <mxGeometry relative="1" as="geometry" />
        </mxCell>
        <mxCell id="22falqz4Or-8pj2Nucx1-82" value="Configuration.java&lt;br&gt;return getProperty(key, null);" style="rounded=1;whiteSpace=wrap;html=1;" vertex="1" parent="1">
          <mxGeometry x="4330" y="250" width="230" height="50" as="geometry" />
        </mxCell>
        <mxCell id="22falqz4Or-8pj2Nucx1-84" value="AbstractPrefixConfiguration.java&lt;br&gt;&lt;div&gt;@Override&lt;/div&gt;&lt;div&gt;&amp;nbsp; &amp;nbsp; public Object getProperty(String key, Object defaultValue) {&lt;/div&gt;&lt;div&gt;&amp;nbsp; &amp;nbsp; &amp;nbsp; &amp;nbsp; Object value = null;&lt;/div&gt;&lt;div&gt;&amp;nbsp; &amp;nbsp; &amp;nbsp; &amp;nbsp; if (StringUtils.isNotEmpty(prefix)) {&lt;/div&gt;&lt;div&gt;&amp;nbsp; &amp;nbsp; &amp;nbsp; &amp;nbsp; &amp;nbsp; &amp;nbsp; if (StringUtils.isNotEmpty(id)) {&lt;/div&gt;&lt;div&gt;&amp;nbsp; &amp;nbsp; &amp;nbsp; &amp;nbsp; &amp;nbsp; &amp;nbsp; &amp;nbsp; &amp;nbsp; value = getInternalProperty(prefix + id + &quot;.&quot; + key);&lt;/div&gt;&lt;div&gt;&amp;nbsp; &amp;nbsp; &amp;nbsp; &amp;nbsp; &amp;nbsp; &amp;nbsp; }&lt;/div&gt;&lt;div&gt;&amp;nbsp; &amp;nbsp; &amp;nbsp; &amp;nbsp; &amp;nbsp; &amp;nbsp; if (value == null) {&lt;/div&gt;&lt;div&gt;&amp;nbsp; &amp;nbsp; &amp;nbsp; &amp;nbsp; &amp;nbsp; &amp;nbsp; &amp;nbsp; &amp;nbsp; value = getInternalProperty(prefix + key);&lt;/div&gt;&lt;div&gt;&amp;nbsp; &amp;nbsp; &amp;nbsp; &amp;nbsp; &amp;nbsp; &amp;nbsp; }&lt;/div&gt;&lt;div&gt;&amp;nbsp; &amp;nbsp; &amp;nbsp; &amp;nbsp; } else {&lt;/div&gt;&lt;div&gt;&amp;nbsp; &amp;nbsp; &amp;nbsp; &amp;nbsp; &amp;nbsp; &amp;nbsp; value = getInternalProperty(key);&lt;/div&gt;&lt;div&gt;&amp;nbsp; &amp;nbsp; &amp;nbsp; &amp;nbsp; }&lt;/div&gt;&lt;div&gt;&amp;nbsp; &amp;nbsp; &amp;nbsp; &amp;nbsp; return value != null ? value : defaultValue;&lt;/div&gt;&lt;div&gt;&amp;nbsp; &amp;nbsp; }&lt;/div&gt;" style="rounded=1;whiteSpace=wrap;html=1;align=left;" vertex="1" parent="1">
          <mxGeometry x="4650" y="130" width="350" height="290" as="geometry" />
        </mxCell>
        <mxCell id="22falqz4Or-8pj2Nucx1-86" value="&lt;div&gt;如果protocol不是只有injvm协议，表示服务调用不是只在本机jvm里面调用，那就需要用到注册中心&lt;br&gt;&lt;/div&gt;&lt;div&gt;if (!isOnlyInJvm()) {&lt;/div&gt;&lt;div&gt;&amp;nbsp; &amp;nbsp; &amp;nbsp; &amp;nbsp; &amp;nbsp; &amp;nbsp; checkRegistry();&lt;/div&gt;&lt;div&gt;}&lt;/div&gt;" style="rounded=1;whiteSpace=wrap;html=1;align=left;" vertex="1" parent="1">
          <mxGeometry x="1180" y="255" width="310" height="90" as="geometry" />
        </mxCell>
        <mxCell id="22falqz4Or-8pj2Nucx1-88" value="&lt;div&gt;刷新ServiceConfig，也就是serviceBean&lt;/div&gt;&lt;div&gt;this.refresh();&lt;/div&gt;" style="rounded=1;whiteSpace=wrap;html=1;align=center;" vertex="1" parent="1">
          <mxGeometry x="1180" y="400" width="240" height="60" as="geometry" />
        </mxCell>
        <mxCell id="22falqz4Or-8pj2Nucx1-90" value="&lt;div&gt;。。。&lt;/div&gt;" style="rounded=1;whiteSpace=wrap;html=1;align=center;" vertex="1" parent="1">
          <mxGeometry x="1180" y="502.5" width="240" height="60" as="geometry" />
        </mxCell>
      </root>
    </mxGraphModel>
  </diagram>
</mxfile>
